solid subcortical/optic_chiasm.stl
facet normal -0.000000 -1.000000 -0.000000
  outer loop
    vertex -1.500000 11.500000 -22.500000
    vertex -2.500000 11.500000 -22.500000
    vertex -1.500000 11.500000 -23.500000
  endloop
endfacet
facet normal 0.000000 -1.000000 0.000000
  outer loop
    vertex -2.500000 11.500000 -23.500000
    vertex -1.500000 11.500000 -23.500000
    vertex -2.500000 11.500000 -22.500000
  endloop
endfacet
facet normal 0.000000 -0.000000 1.000000
  outer loop
    vertex -1.500000 11.500000 -22.500000
    vertex -1.500000 12.500000 -22.500000
    vertex -2.500000 11.500000 -22.500000
  endloop
endfacet
facet normal -0.000000 0.000000 1.000000
  outer loop
    vertex -2.500000 12.500000 -22.500000
    vertex -2.500000 11.500000 -22.500000
    vertex -1.500000 12.500000 -22.500000
  endloop
endfacet
facet normal 1.000000 0.000000 0.000000
  outer loop
    vertex -1.500000 11.500000 -22.500000
    vertex -1.500000 11.500000 -23.500000
    vertex -1.500000 12.500000 -23.500000
  endloop
endfacet
facet normal 1.000000 -0.000000 0.000000
  outer loop
    vertex -1.500000 11.500000 -22.500000
    vertex -1.500000 12.500000 -23.500000
    vertex -1.500000 12.500000 -22.500000
  endloop
endfacet
facet normal -0.000000 -1.000000 -0.000000
  outer loop
    vertex -2.500000 11.500000 -22.500000
    vertex -3.500000 11.500000 -22.500000
    vertex -2.500000 11.500000 -23.500000
  endloop
endfacet
facet normal 0.000000 -1.000000 0.000000
  outer loop
    vertex -3.500000 11.500000 -23.500000
    vertex -2.500000 11.500000 -23.500000
    vertex -3.500000 11.500000 -22.500000
  endloop
endfacet
facet normal 0.000000 -0.000000 1.000000
  outer loop
    vertex -2.500000 11.500000 -22.500000
    vertex -2.500000 12.500000 -22.500000
    vertex -3.500000 12.500000 -22.500000
  endloop
endfacet
facet normal 0.000000 0.000000 1.000000
  outer loop
    vertex -2.500000 11.500000 -22.500000
    vertex -3.500000 12.500000 -22.500000
    vertex -3.500000 11.500000 -22.500000
  endloop
endfacet
facet normal -1.000000 0.000000 0.000000
  outer loop
    vertex -3.500000 11.500000 -22.500000
    vertex -3.500000 12.500000 -22.500000
    vertex -3.500000 11.500000 -23.500000
  endloop
endfacet
facet normal -1.000000 0.000000 0.000000
  outer loop
    vertex -3.500000 12.500000 -23.500000
    vertex -3.500000 11.500000 -23.500000
    vertex -3.500000 12.500000 -22.500000
  endloop
endfacet
facet normal -0.000000 -1.000000 -0.000000
  outer loop
    vertex -1.500000 11.500000 -23.500000
    vertex -2.500000 11.500000 -23.500000
    vertex -1.500000 11.500000 -24.500000
  endloop
endfacet
facet normal 0.000000 -1.000000 0.000000
  outer loop
    vertex -2.500000 11.500000 -24.500000
    vertex -1.500000 11.500000 -24.500000
    vertex -2.500000 11.500000 -23.500000
  endloop
endfacet
facet normal 1.000000 -0.000000 0.000000
  outer loop
    vertex -1.500000 11.500000 -23.500000
    vertex -1.500000 11.500000 -24.500000
    vertex -1.500000 12.500000 -23.500000
  endloop
endfacet
facet normal 1.000000 0.000000 -0.000000
  outer loop
    vertex -1.500000 12.500000 -24.500000
    vertex -1.500000 12.500000 -23.500000
    vertex -1.500000 11.500000 -24.500000
  endloop
endfacet
facet normal -0.000000 -1.000000 0.000000
  outer loop
    vertex -2.500000 11.500000 -23.500000
    vertex -3.500000 11.500000 -23.500000
    vertex -3.500000 11.500000 -24.500000
  endloop
endfacet
facet normal 0.000000 -1.000000 -0.000000
  outer loop
    vertex -2.500000 11.500000 -23.500000
    vertex -3.500000 11.500000 -24.500000
    vertex -2.500000 11.500000 -24.500000
  endloop
endfacet
facet normal -1.000000 0.000000 0.000000
  outer loop
    vertex -3.500000 11.500000 -23.500000
    vertex -3.500000 12.500000 -23.500000
    vertex -3.500000 11.500000 -24.500000
  endloop
endfacet
facet normal -1.000000 0.000000 0.000000
  outer loop
    vertex -3.500000 12.500000 -24.500000
    vertex -3.500000 11.500000 -24.500000
    vertex -3.500000 12.500000 -23.500000
  endloop
endfacet
facet normal -0.000000 -1.000000 -0.000000
  outer loop
    vertex 1.500000 11.500000 -24.500000
    vertex 0.500000 11.500000 -24.500000
    vertex 1.500000 11.500000 -25.500000
  endloop
endfacet
facet normal 0.000000 -1.000000 0.000000
  outer loop
    vertex 0.500000 11.500000 -25.500000
    vertex 1.500000 11.500000 -25.500000
    vertex 0.500000 11.500000 -24.500000
  endloop
endfacet
facet normal 0.000000 -0.000000 1.000000
  outer loop
    vertex 1.500000 11.500000 -24.500000
    vertex 1.500000 12.500000 -24.500000
    vertex 0.500000 11.500000 -24.500000
  endloop
endfacet
facet normal -0.000000 0.000000 1.000000
  outer loop
    vertex 0.500000 12.500000 -24.500000
    vertex 0.500000 11.500000 -24.500000
    vertex 1.500000 12.500000 -24.500000
  endloop
endfacet
facet normal 1.000000 -0.000000 0.000000
  outer loop
    vertex 1.500000 11.500000 -24.500000
    vertex 1.500000 11.500000 -25.500000
    vertex 1.500000 12.500000 -24.500000
  endloop
endfacet
facet normal 1.000000 0.000000 -0.000000
  outer loop
    vertex 1.500000 12.500000 -25.500000
    vertex 1.500000 12.500000 -24.500000
    vertex 1.500000 11.500000 -25.500000
  endloop
endfacet
facet normal -0.000000 -1.000000 0.000000
  outer loop
    vertex 0.500000 11.500000 -24.500000
    vertex -0.500000 11.500000 -24.500000
    vertex -0.500000 11.500000 -25.500000
  endloop
endfacet
facet normal 0.000000 -1.000000 -0.000000
  outer loop
    vertex 0.500000 11.500000 -24.500000
    vertex -0.500000 11.500000 -25.500000
    vertex 0.500000 11.500000 -25.500000
  endloop
endfacet
facet normal 0.000000 -0.000000 1.000000
  outer loop
    vertex 0.500000 11.500000 -24.500000
    vertex 0.500000 12.500000 -24.500000
    vertex -0.500000 11.500000 -24.500000
  endloop
endfacet
facet normal -0.000000 0.000000 1.000000
  outer loop
    vertex -0.500000 12.500000 -24.500000
    vertex -0.500000 11.500000 -24.500000
    vertex 0.500000 12.500000 -24.500000
  endloop
endfacet
facet normal -0.000000 -1.000000 -0.000000
  outer loop
    vertex -0.500000 11.500000 -24.500000
    vertex -1.500000 11.500000 -24.500000
    vertex -0.500000 11.500000 -25.500000
  endloop
endfacet
facet normal 0.000000 -1.000000 0.000000
  outer loop
    vertex -1.500000 11.500000 -25.500000
    vertex -0.500000 11.500000 -25.500000
    vertex -1.500000 11.500000 -24.500000
  endloop
endfacet
facet normal 0.000000 -0.000000 1.000000
  outer loop
    vertex -0.500000 11.500000 -24.500000
    vertex -0.500000 12.500000 -24.500000
    vertex -1.500000 12.500000 -24.500000
  endloop
endfacet
facet normal 0.000000 0.000000 1.000000
  outer loop
    vertex -0.500000 11.500000 -24.500000
    vertex -1.500000 12.500000 -24.500000
    vertex -1.500000 11.500000 -24.500000
  endloop
endfacet
facet normal -0.000000 -1.000000 -0.000000
  outer loop
    vertex -1.500000 11.500000 -24.500000
    vertex -2.500000 11.500000 -24.500000
    vertex -1.500000 11.500000 -25.500000
  endloop
endfacet
facet normal 0.000000 -1.000000 0.000000
  outer loop
    vertex -2.500000 11.500000 -25.500000
    vertex -1.500000 11.500000 -25.500000
    vertex -2.500000 11.500000 -24.500000
  endloop
endfacet
facet normal -0.000000 -1.000000 0.000000
  outer loop
    vertex -2.500000 11.500000 -24.500000
    vertex -3.500000 11.500000 -24.500000
    vertex -3.500000 11.500000 -25.500000
  endloop
endfacet
facet normal 0.000000 -1.000000 -0.000000
  outer loop
    vertex -2.500000 11.500000 -24.500000
    vertex -3.500000 11.500000 -25.500000
    vertex -2.500000 11.500000 -25.500000
  endloop
endfacet
facet normal -0.000000 -1.000000 0.000000
  outer loop
    vertex -3.500000 11.500000 -24.500000
    vertex -4.500000 11.500000 -24.500000
    vertex -4.500000 11.500000 -25.500000
  endloop
endfacet
facet normal 0.000000 -1.000000 -0.000000
  outer loop
    vertex -3.500000 11.500000 -24.500000
    vertex -4.500000 11.500000 -25.500000
    vertex -3.500000 11.500000 -25.500000
  endloop
endfacet
facet normal 0.000000 -0.000000 1.000000
  outer loop
    vertex -3.500000 11.500000 -24.500000
    vertex -3.500000 12.500000 -24.500000
    vertex -4.500000 11.500000 -24.500000
  endloop
endfacet
facet normal -0.000000 0.000000 1.000000
  outer loop
    vertex -4.500000 12.500000 -24.500000
    vertex -4.500000 11.500000 -24.500000
    vertex -3.500000 12.500000 -24.500000
  endloop
endfacet
facet normal -1.000000 0.000000 0.000000
  outer loop
    vertex -4.500000 11.500000 -24.500000
    vertex -4.500000 12.500000 -24.500000
    vertex -4.500000 11.500000 -25.500000
  endloop
endfacet
facet normal -1.000000 0.000000 0.000000
  outer loop
    vertex -4.500000 12.500000 -25.500000
    vertex -4.500000 11.500000 -25.500000
    vertex -4.500000 12.500000 -24.500000
  endloop
endfacet
facet normal -0.000000 -1.000000 -0.000000
  outer loop
    vertex 1.500000 11.500000 -25.500000
    vertex 0.500000 11.500000 -25.500000
    vertex 1.500000 11.500000 -26.500000
  endloop
endfacet
facet normal 0.000000 -1.000000 0.000000
  outer loop
    vertex 0.500000 11.500000 -26.500000
    vertex 1.500000 11.500000 -26.500000
    vertex 0.500000 11.500000 -25.500000
  endloop
endfacet
facet normal 1.000000 0.000000 0.000000
  outer loop
    vertex 1.500000 11.500000 -25.500000
    vertex 1.500000 11.500000 -26.500000
    vertex 1.500000 12.500000 -26.500000
  endloop
endfacet
facet normal 1.000000 -0.000000 0.000000
  outer loop
    vertex 1.500000 11.500000 -25.500000
    vertex 1.500000 12.500000 -26.500000
    vertex 1.500000 12.500000 -25.500000
  endloop
endfacet
facet normal -0.000000 -1.000000 -0.000000
  outer loop
    vertex 0.500000 11.500000 -25.500000
    vertex -0.500000 11.500000 -25.500000
    vertex 0.500000 11.500000 -26.500000
  endloop
endfacet
facet normal 0.000000 -1.000000 0.000000
  outer loop
    vertex -0.500000 11.500000 -26.500000
    vertex 0.500000 11.500000 -26.500000
    vertex -0.500000 11.500000 -25.500000
  endloop
endfacet
facet normal -0.000000 -1.000000 0.000000
  outer loop
    vertex -0.500000 11.500000 -25.500000
    vertex -1.500000 11.500000 -25.500000
    vertex -1.500000 11.500000 -26.500000
  endloop
endfacet
facet normal 0.000000 -1.000000 -0.000000
  outer loop
    vertex -0.500000 11.500000 -25.500000
    vertex -1.500000 11.500000 -26.500000
    vertex -0.500000 11.500000 -26.500000
  endloop
endfacet
facet normal -0.000000 -1.000000 0.000000
  outer loop
    vertex -1.500000 11.500000 -25.500000
    vertex -2.500000 11.500000 -25.500000
    vertex -2.500000 11.500000 -26.500000
  endloop
endfacet
facet normal 0.000000 -1.000000 -0.000000
  outer loop
    vertex -1.500000 11.500000 -25.500000
    vertex -2.500000 11.500000 -26.500000
    vertex -1.500000 11.500000 -26.500000
  endloop
endfacet
facet normal -0.000000 -1.000000 -0.000000
  outer loop
    vertex -2.500000 11.500000 -25.500000
    vertex -3.500000 11.500000 -25.500000
    vertex -2.500000 11.500000 -26.500000
  endloop
endfacet
facet normal 0.000000 -1.000000 0.000000
  outer loop
    vertex -3.500000 11.500000 -26.500000
    vertex -2.500000 11.500000 -26.500000
    vertex -3.500000 11.500000 -25.500000
  endloop
endfacet
facet normal 0.000000 0.000000 -1.000000
  outer loop
    vertex -3.500000 11.500000 -25.500000
    vertex -4.500000 11.500000 -25.500000
    vertex -3.500000 12.500000 -25.500000
  endloop
endfacet
facet normal 0.000000 0.000000 -1.000000
  outer loop
    vertex -4.500000 12.500000 -25.500000
    vertex -3.500000 12.500000 -25.500000
    vertex -4.500000 11.500000 -25.500000
  endloop
endfacet
facet normal -1.000000 0.000000 0.000000
  outer loop
    vertex -3.500000 11.500000 -25.500000
    vertex -3.500000 12.500000 -25.500000
    vertex -3.500000 11.500000 -26.500000
  endloop
endfacet
facet normal -1.000000 0.000000 0.000000
  outer loop
    vertex -3.500000 12.500000 -26.500000
    vertex -3.500000 11.500000 -26.500000
    vertex -3.500000 12.500000 -25.500000
  endloop
endfacet
facet normal 0.000000 0.000000 -1.000000
  outer loop
    vertex 1.500000 11.500000 -26.500000
    vertex 0.500000 11.500000 -26.500000
    vertex 0.500000 12.500000 -26.500000
  endloop
endfacet
facet normal 0.000000 0.000000 -1.000000
  outer loop
    vertex 1.500000 11.500000 -26.500000
    vertex 0.500000 12.500000 -26.500000
    vertex 1.500000 12.500000 -26.500000
  endloop
endfacet
facet normal 0.000000 0.000000 -1.000000
  outer loop
    vertex 0.500000 11.500000 -26.500000
    vertex -0.500000 11.500000 -26.500000
    vertex -0.500000 12.500000 -26.500000
  endloop
endfacet
facet normal 0.000000 0.000000 -1.000000
  outer loop
    vertex 0.500000 11.500000 -26.500000
    vertex -0.500000 12.500000 -26.500000
    vertex 0.500000 12.500000 -26.500000
  endloop
endfacet
facet normal 0.000000 0.000000 -1.000000
  outer loop
    vertex -0.500000 11.500000 -26.500000
    vertex -1.500000 11.500000 -26.500000
    vertex -1.500000 12.500000 -26.500000
  endloop
endfacet
facet normal 0.000000 0.000000 -1.000000
  outer loop
    vertex -0.500000 11.500000 -26.500000
    vertex -1.500000 12.500000 -26.500000
    vertex -0.500000 12.500000 -26.500000
  endloop
endfacet
facet normal 0.000000 0.000000 -1.000000
  outer loop
    vertex -1.500000 11.500000 -26.500000
    vertex -2.500000 11.500000 -26.500000
    vertex -1.500000 12.500000 -26.500000
  endloop
endfacet
facet normal 0.000000 0.000000 -1.000000
  outer loop
    vertex -2.500000 12.500000 -26.500000
    vertex -1.500000 12.500000 -26.500000
    vertex -2.500000 11.500000 -26.500000
  endloop
endfacet
facet normal 0.000000 0.000000 -1.000000
  outer loop
    vertex -2.500000 11.500000 -26.500000
    vertex -3.500000 11.500000 -26.500000
    vertex -2.500000 12.500000 -26.500000
  endloop
endfacet
facet normal 0.000000 0.000000 -1.000000
  outer loop
    vertex -3.500000 12.500000 -26.500000
    vertex -2.500000 12.500000 -26.500000
    vertex -3.500000 11.500000 -26.500000
  endloop
endfacet
facet normal 0.000000 -0.000000 1.000000
  outer loop
    vertex -1.500000 12.500000 -22.500000
    vertex -1.500000 13.500000 -22.500000
    vertex -2.500000 13.500000 -22.500000
  endloop
endfacet
facet normal 0.000000 0.000000 1.000000
  outer loop
    vertex -1.500000 12.500000 -22.500000
    vertex -2.500000 13.500000 -22.500000
    vertex -2.500000 12.500000 -22.500000
  endloop
endfacet
facet normal 1.000000 -0.000000 0.000000
  outer loop
    vertex -1.500000 12.500000 -22.500000
    vertex -1.500000 12.500000 -23.500000
    vertex -1.500000 13.500000 -22.500000
  endloop
endfacet
facet normal 1.000000 0.000000 -0.000000
  outer loop
    vertex -1.500000 13.500000 -23.500000
    vertex -1.500000 13.500000 -22.500000
    vertex -1.500000 12.500000 -23.500000
  endloop
endfacet
facet normal 0.000000 -0.000000 1.000000
  outer loop
    vertex -2.500000 12.500000 -22.500000
    vertex -2.500000 13.500000 -22.500000
    vertex -3.500000 12.500000 -22.500000
  endloop
endfacet
facet normal -0.000000 0.000000 1.000000
  outer loop
    vertex -3.500000 13.500000 -22.500000
    vertex -3.500000 12.500000 -22.500000
    vertex -2.500000 13.500000 -22.500000
  endloop
endfacet
facet normal -0.000000 -1.000000 0.000000
  outer loop
    vertex -3.500000 12.500000 -22.500000
    vertex -4.500000 12.500000 -22.500000
    vertex -4.500000 12.500000 -23.500000
  endloop
endfacet
facet normal 0.000000 -1.000000 -0.000000
  outer loop
    vertex -3.500000 12.500000 -22.500000
    vertex -4.500000 12.500000 -23.500000
    vertex -3.500000 12.500000 -23.500000
  endloop
endfacet
facet normal 0.000000 -0.000000 1.000000
  outer loop
    vertex -3.500000 12.500000 -22.500000
    vertex -3.500000 13.500000 -22.500000
    vertex -4.500000 12.500000 -22.500000
  endloop
endfacet
facet normal -0.000000 0.000000 1.000000
  outer loop
    vertex -4.500000 13.500000 -22.500000
    vertex -4.500000 12.500000 -22.500000
    vertex -3.500000 13.500000 -22.500000
  endloop
endfacet
facet normal -0.000000 -1.000000 -0.000000
  outer loop
    vertex -4.500000 12.500000 -22.500000
    vertex -5.500000 12.500000 -22.500000
    vertex -4.500000 12.500000 -23.500000
  endloop
endfacet
facet normal 0.000000 -1.000000 0.000000
  outer loop
    vertex -5.500000 12.500000 -23.500000
    vertex -4.500000 12.500000 -23.500000
    vertex -5.500000 12.500000 -22.500000
  endloop
endfacet
facet normal 0.000000 -0.000000 1.000000
  outer loop
    vertex -4.500000 12.500000 -22.500000
    vertex -4.500000 13.500000 -22.500000
    vertex -5.500000 12.500000 -22.500000
  endloop
endfacet
facet normal -0.000000 0.000000 1.000000
  outer loop
    vertex -5.500000 13.500000 -22.500000
    vertex -5.500000 12.500000 -22.500000
    vertex -4.500000 13.500000 -22.500000
  endloop
endfacet
facet normal -0.000000 -1.000000 -0.000000
  outer loop
    vertex -5.500000 12.500000 -22.500000
    vertex -6.500000 12.500000 -22.500000
    vertex -5.500000 12.500000 -23.500000
  endloop
endfacet
facet normal 0.000000 -1.000000 0.000000
  outer loop
    vertex -6.500000 12.500000 -23.500000
    vertex -5.500000 12.500000 -23.500000
    vertex -6.500000 12.500000 -22.500000
  endloop
endfacet
facet normal 0.000000 -0.000000 1.000000
  outer loop
    vertex -5.500000 12.500000 -22.500000
    vertex -5.500000 13.500000 -22.500000
    vertex -6.500000 12.500000 -22.500000
  endloop
endfacet
facet normal -0.000000 0.000000 1.000000
  outer loop
    vertex -6.500000 13.500000 -22.500000
    vertex -6.500000 12.500000 -22.500000
    vertex -5.500000 13.500000 -22.500000
  endloop
endfacet
facet normal -1.000000 0.000000 0.000000
  outer loop
    vertex -6.500000 12.500000 -22.500000
    vertex -6.500000 13.500000 -22.500000
    vertex -6.500000 13.500000 -23.500000
  endloop
endfacet
facet normal -1.000000 0.000000 0.000000
  outer loop
    vertex -6.500000 12.500000 -22.500000
    vertex -6.500000 13.500000 -23.500000
    vertex -6.500000 12.500000 -23.500000
  endloop
endfacet
facet normal -0.000000 -1.000000 0.000000
  outer loop
    vertex 2.500000 12.500000 -23.500000
    vertex 1.500000 12.500000 -23.500000
    vertex 1.500000 12.500000 -24.500000
  endloop
endfacet
facet normal 0.000000 -1.000000 -0.000000
  outer loop
    vertex 2.500000 12.500000 -23.500000
    vertex 1.500000 12.500000 -24.500000
    vertex 2.500000 12.500000 -24.500000
  endloop
endfacet
facet normal 0.000000 -0.000000 1.000000
  outer loop
    vertex 2.500000 12.500000 -23.500000
    vertex 2.500000 13.500000 -23.500000
    vertex 1.500000 13.500000 -23.500000
  endloop
endfacet
facet normal 0.000000 0.000000 1.000000
  outer loop
    vertex 2.500000 12.500000 -23.500000
    vertex 1.500000 13.500000 -23.500000
    vertex 1.500000 12.500000 -23.500000
  endloop
endfacet
facet normal 1.000000 -0.000000 0.000000
  outer loop
    vertex 2.500000 12.500000 -23.500000
    vertex 2.500000 12.500000 -24.500000
    vertex 2.500000 13.500000 -23.500000
  endloop
endfacet
facet normal 1.000000 0.000000 -0.000000
  outer loop
    vertex 2.500000 13.500000 -24.500000
    vertex 2.500000 13.500000 -23.500000
    vertex 2.500000 12.500000 -24.500000
  endloop
endfacet
facet normal -0.000000 -1.000000 0.000000
  outer loop
    vertex 1.500000 12.500000 -23.500000
    vertex 0.500000 12.500000 -23.500000
    vertex 0.500000 12.500000 -24.500000
  endloop
endfacet
facet normal 0.000000 -1.000000 -0.000000
  outer loop
    vertex 1.500000 12.500000 -23.500000
    vertex 0.500000 12.500000 -24.500000
    vertex 1.500000 12.500000 -24.500000
  endloop
endfacet
facet normal 0.000000 -0.000000 1.000000
  outer loop
    vertex 1.500000 12.500000 -23.500000
    vertex 1.500000 13.500000 -23.500000
    vertex 0.500000 13.500000 -23.500000
  endloop
endfacet
facet normal 0.000000 0.000000 1.000000
  outer loop
    vertex 1.500000 12.500000 -23.500000
    vertex 0.500000 13.500000 -23.500000
    vertex 0.500000 12.500000 -23.500000
  endloop
endfacet
facet normal -0.000000 -1.000000 0.000000
  outer loop
    vertex 0.500000 12.500000 -23.500000
    vertex -0.500000 12.500000 -23.500000
    vertex -0.500000 12.500000 -24.500000
  endloop
endfacet
facet normal 0.000000 -1.000000 -0.000000
  outer loop
    vertex 0.500000 12.500000 -23.500000
    vertex -0.500000 12.500000 -24.500000
    vertex 0.500000 12.500000 -24.500000
  endloop
endfacet
facet normal 0.000000 -0.000000 1.000000
  outer loop
    vertex 0.500000 12.500000 -23.500000
    vertex 0.500000 13.500000 -23.500000
    vertex -0.500000 13.500000 -23.500000
  endloop
endfacet
facet normal 0.000000 0.000000 1.000000
  outer loop
    vertex 0.500000 12.500000 -23.500000
    vertex -0.500000 13.500000 -23.500000
    vertex -0.500000 12.500000 -23.500000
  endloop
endfacet
facet normal -0.000000 -1.000000 0.000000
  outer loop
    vertex -0.500000 12.500000 -23.500000
    vertex -1.500000 12.500000 -23.500000
    vertex -1.500000 12.500000 -24.500000
  endloop
endfacet
facet normal 0.000000 -1.000000 -0.000000
  outer loop
    vertex -0.500000 12.500000 -23.500000
    vertex -1.500000 12.500000 -24.500000
    vertex -0.500000 12.500000 -24.500000
  endloop
endfacet
facet normal 0.000000 -0.000000 1.000000
  outer loop
    vertex -0.500000 12.500000 -23.500000
    vertex -0.500000 13.500000 -23.500000
    vertex -1.500000 12.500000 -23.500000
  endloop
endfacet
facet normal -0.000000 0.000000 1.000000
  outer loop
    vertex -1.500000 13.500000 -23.500000
    vertex -1.500000 12.500000 -23.500000
    vertex -0.500000 13.500000 -23.500000
  endloop
endfacet
facet normal -0.000000 -1.000000 -0.000000
  outer loop
    vertex -3.500000 12.500000 -23.500000
    vertex -4.500000 12.500000 -23.500000
    vertex -3.500000 12.500000 -24.500000
  endloop
endfacet
facet normal 0.000000 -1.000000 0.000000
  outer loop
    vertex -4.500000 12.500000 -24.500000
    vertex -3.500000 12.500000 -24.500000
    vertex -4.500000 12.500000 -23.500000
  endloop
endfacet
facet normal -0.000000 -1.000000 -0.000000
  outer loop
    vertex -4.500000 12.500000 -23.500000
    vertex -5.500000 12.500000 -23.500000
    vertex -4.500000 12.500000 -24.500000
  endloop
endfacet
facet normal 0.000000 -1.000000 0.000000
  outer loop
    vertex -5.500000 12.500000 -24.500000
    vertex -4.500000 12.500000 -24.500000
    vertex -5.500000 12.500000 -23.500000
  endloop
endfacet
facet normal -0.000000 -1.000000 -0.000000
  outer loop
    vertex -5.500000 12.500000 -23.500000
    vertex -6.500000 12.500000 -23.500000
    vertex -5.500000 12.500000 -24.500000
  endloop
endfacet
facet normal 0.000000 -1.000000 0.000000
  outer loop
    vertex -6.500000 12.500000 -24.500000
    vertex -5.500000 12.500000 -24.500000
    vertex -6.500000 12.500000 -23.500000
  endloop
endfacet
facet normal -1.000000 0.000000 0.000000
  outer loop
    vertex -6.500000 12.500000 -23.500000
    vertex -6.500000 13.500000 -23.500000
    vertex -6.500000 13.500000 -24.500000
  endloop
endfacet
facet normal -1.000000 0.000000 0.000000
  outer loop
    vertex -6.500000 12.500000 -23.500000
    vertex -6.500000 13.500000 -24.500000
    vertex -6.500000 12.500000 -24.500000
  endloop
endfacet
facet normal -0.000000 -1.000000 0.000000
  outer loop
    vertex 5.500000 12.500000 -24.500000
    vertex 4.500000 12.500000 -24.500000
    vertex 4.500000 12.500000 -25.500000
  endloop
endfacet
facet normal 0.000000 -1.000000 -0.000000
  outer loop
    vertex 5.500000 12.500000 -24.500000
    vertex 4.500000 12.500000 -25.500000
    vertex 5.500000 12.500000 -25.500000
  endloop
endfacet
facet normal 0.000000 -0.000000 1.000000
  outer loop
    vertex 5.500000 12.500000 -24.500000
    vertex 5.500000 13.500000 -24.500000
    vertex 4.500000 13.500000 -24.500000
  endloop
endfacet
facet normal 0.000000 0.000000 1.000000
  outer loop
    vertex 5.500000 12.500000 -24.500000
    vertex 4.500000 13.500000 -24.500000
    vertex 4.500000 12.500000 -24.500000
  endloop
endfacet
facet normal 1.000000 -0.000000 0.000000
  outer loop
    vertex 5.500000 12.500000 -24.500000
    vertex 5.500000 12.500000 -25.500000
    vertex 5.500000 13.500000 -24.500000
  endloop
endfacet
facet normal 1.000000 0.000000 -0.000000
  outer loop
    vertex 5.500000 13.500000 -25.500000
    vertex 5.500000 13.500000 -24.500000
    vertex 5.500000 12.500000 -25.500000
  endloop
endfacet
facet normal -0.000000 -1.000000 0.000000
  outer loop
    vertex 4.500000 12.500000 -24.500000
    vertex 3.500000 12.500000 -24.500000
    vertex 3.500000 12.500000 -25.500000
  endloop
endfacet
facet normal 0.000000 -1.000000 -0.000000
  outer loop
    vertex 4.500000 12.500000 -24.500000
    vertex 3.500000 12.500000 -25.500000
    vertex 4.500000 12.500000 -25.500000
  endloop
endfacet
facet normal 0.000000 -0.000000 1.000000
  outer loop
    vertex 4.500000 12.500000 -24.500000
    vertex 4.500000 13.500000 -24.500000
    vertex 3.500000 13.500000 -24.500000
  endloop
endfacet
facet normal 0.000000 0.000000 1.000000
  outer loop
    vertex 4.500000 12.500000 -24.500000
    vertex 3.500000 13.500000 -24.500000
    vertex 3.500000 12.500000 -24.500000
  endloop
endfacet
facet normal -0.000000 -1.000000 0.000000
  outer loop
    vertex 3.500000 12.500000 -24.500000
    vertex 2.500000 12.500000 -24.500000
    vertex 2.500000 12.500000 -25.500000
  endloop
endfacet
facet normal 0.000000 -1.000000 -0.000000
  outer loop
    vertex 3.500000 12.500000 -24.500000
    vertex 2.500000 12.500000 -25.500000
    vertex 3.500000 12.500000 -25.500000
  endloop
endfacet
facet normal 0.000000 -0.000000 1.000000
  outer loop
    vertex 3.500000 12.500000 -24.500000
    vertex 3.500000 13.500000 -24.500000
    vertex 2.500000 13.500000 -24.500000
  endloop
endfacet
facet normal 0.000000 0.000000 1.000000
  outer loop
    vertex 3.500000 12.500000 -24.500000
    vertex 2.500000 13.500000 -24.500000
    vertex 2.500000 12.500000 -24.500000
  endloop
endfacet
facet normal -0.000000 -1.000000 -0.000000
  outer loop
    vertex 2.500000 12.500000 -24.500000
    vertex 1.500000 12.500000 -24.500000
    vertex 2.500000 12.500000 -25.500000
  endloop
endfacet
facet normal 0.000000 -1.000000 0.000000
  outer loop
    vertex 1.500000 12.500000 -25.500000
    vertex 2.500000 12.500000 -25.500000
    vertex 1.500000 12.500000 -24.500000
  endloop
endfacet
facet normal -0.000000 -1.000000 0.000000
  outer loop
    vertex -4.500000 12.500000 -24.500000
    vertex -5.500000 12.500000 -24.500000
    vertex -5.500000 12.500000 -25.500000
  endloop
endfacet
facet normal 0.000000 -1.000000 -0.000000
  outer loop
    vertex -4.500000 12.500000 -24.500000
    vertex -5.500000 12.500000 -25.500000
    vertex -4.500000 12.500000 -25.500000
  endloop
endfacet
facet normal -0.000000 -1.000000 0.000000
  outer loop
    vertex -5.500000 12.500000 -24.500000
    vertex -6.500000 12.500000 -24.500000
    vertex -6.500000 12.500000 -25.500000
  endloop
endfacet
facet normal 0.000000 -1.000000 -0.000000
  outer loop
    vertex -5.500000 12.500000 -24.500000
    vertex -6.500000 12.500000 -25.500000
    vertex -5.500000 12.500000 -25.500000
  endloop
endfacet
facet normal -1.000000 0.000000 0.000000
  outer loop
    vertex -6.500000 12.500000 -24.500000
    vertex -6.500000 13.500000 -24.500000
    vertex -6.500000 13.500000 -25.500000
  endloop
endfacet
facet normal -1.000000 0.000000 0.000000
  outer loop
    vertex -6.500000 12.500000 -24.500000
    vertex -6.500000 13.500000 -25.500000
    vertex -6.500000 12.500000 -25.500000
  endloop
endfacet
facet normal -0.000000 -1.000000 -0.000000
  outer loop
    vertex 5.500000 12.500000 -25.500000
    vertex 4.500000 12.500000 -25.500000
    vertex 5.500000 12.500000 -26.500000
  endloop
endfacet
facet normal 0.000000 -1.000000 0.000000
  outer loop
    vertex 4.500000 12.500000 -26.500000
    vertex 5.500000 12.500000 -26.500000
    vertex 4.500000 12.500000 -25.500000
  endloop
endfacet
facet normal 1.000000 0.000000 0.000000
  outer loop
    vertex 5.500000 12.500000 -25.500000
    vertex 5.500000 12.500000 -26.500000
    vertex 5.500000 13.500000 -26.500000
  endloop
endfacet
facet normal 1.000000 -0.000000 0.000000
  outer loop
    vertex 5.500000 12.500000 -25.500000
    vertex 5.500000 13.500000 -26.500000
    vertex 5.500000 13.500000 -25.500000
  endloop
endfacet
facet normal -0.000000 -1.000000 -0.000000
  outer loop
    vertex 4.500000 12.500000 -25.500000
    vertex 3.500000 12.500000 -25.500000
    vertex 4.500000 12.500000 -26.500000
  endloop
endfacet
facet normal 0.000000 -1.000000 0.000000
  outer loop
    vertex 3.500000 12.500000 -26.500000
    vertex 4.500000 12.500000 -26.500000
    vertex 3.500000 12.500000 -25.500000
  endloop
endfacet
facet normal -0.000000 -1.000000 -0.000000
  outer loop
    vertex 3.500000 12.500000 -25.500000
    vertex 2.500000 12.500000 -25.500000
    vertex 3.500000 12.500000 -26.500000
  endloop
endfacet
facet normal 0.000000 -1.000000 0.000000
  outer loop
    vertex 2.500000 12.500000 -26.500000
    vertex 3.500000 12.500000 -26.500000
    vertex 2.500000 12.500000 -25.500000
  endloop
endfacet
facet normal -0.000000 -1.000000 -0.000000
  outer loop
    vertex 2.500000 12.500000 -25.500000
    vertex 1.500000 12.500000 -25.500000
    vertex 2.500000 12.500000 -26.500000
  endloop
endfacet
facet normal 0.000000 -1.000000 0.000000
  outer loop
    vertex 1.500000 12.500000 -26.500000
    vertex 2.500000 12.500000 -26.500000
    vertex 1.500000 12.500000 -25.500000
  endloop
endfacet
facet normal -0.000000 -1.000000 0.000000
  outer loop
    vertex -3.500000 12.500000 -25.500000
    vertex -4.500000 12.500000 -25.500000
    vertex -4.500000 12.500000 -26.500000
  endloop
endfacet
facet normal 0.000000 -1.000000 -0.000000
  outer loop
    vertex -3.500000 12.500000 -25.500000
    vertex -4.500000 12.500000 -26.500000
    vertex -3.500000 12.500000 -26.500000
  endloop
endfacet
facet normal -0.000000 -1.000000 0.000000
  outer loop
    vertex -4.500000 12.500000 -25.500000
    vertex -5.500000 12.500000 -25.500000
    vertex -5.500000 12.500000 -26.500000
  endloop
endfacet
facet normal 0.000000 -1.000000 -0.000000
  outer loop
    vertex -4.500000 12.500000 -25.500000
    vertex -5.500000 12.500000 -26.500000
    vertex -4.500000 12.500000 -26.500000
  endloop
endfacet
facet normal -0.000000 -1.000000 0.000000
  outer loop
    vertex -5.500000 12.500000 -25.500000
    vertex -6.500000 12.500000 -25.500000
    vertex -6.500000 12.500000 -26.500000
  endloop
endfacet
facet normal 0.000000 -1.000000 -0.000000
  outer loop
    vertex -5.500000 12.500000 -25.500000
    vertex -6.500000 12.500000 -26.500000
    vertex -5.500000 12.500000 -26.500000
  endloop
endfacet
facet normal -1.000000 0.000000 0.000000
  outer loop
    vertex -6.500000 12.500000 -25.500000
    vertex -6.500000 13.500000 -25.500000
    vertex -6.500000 12.500000 -26.500000
  endloop
endfacet
facet normal -1.000000 0.000000 0.000000
  outer loop
    vertex -6.500000 13.500000 -26.500000
    vertex -6.500000 12.500000 -26.500000
    vertex -6.500000 13.500000 -25.500000
  endloop
endfacet
facet normal 0.000000 0.000000 -1.000000
  outer loop
    vertex 5.500000 12.500000 -26.500000
    vertex 4.500000 12.500000 -26.500000
    vertex 5.500000 13.500000 -26.500000
  endloop
endfacet
facet normal 0.000000 0.000000 -1.000000
  outer loop
    vertex 4.500000 13.500000 -26.500000
    vertex 5.500000 13.500000 -26.500000
    vertex 4.500000 12.500000 -26.500000
  endloop
endfacet
facet normal 0.000000 0.000000 -1.000000
  outer loop
    vertex 4.500000 12.500000 -26.500000
    vertex 3.500000 12.500000 -26.500000
    vertex 4.500000 13.500000 -26.500000
  endloop
endfacet
facet normal 0.000000 0.000000 -1.000000
  outer loop
    vertex 3.500000 13.500000 -26.500000
    vertex 4.500000 13.500000 -26.500000
    vertex 3.500000 12.500000 -26.500000
  endloop
endfacet
facet normal 0.000000 0.000000 -1.000000
  outer loop
    vertex 3.500000 12.500000 -26.500000
    vertex 2.500000 12.500000 -26.500000
    vertex 3.500000 13.500000 -26.500000
  endloop
endfacet
facet normal 0.000000 0.000000 -1.000000
  outer loop
    vertex 2.500000 13.500000 -26.500000
    vertex 3.500000 13.500000 -26.500000
    vertex 2.500000 12.500000 -26.500000
  endloop
endfacet
facet normal 0.000000 0.000000 -1.000000
  outer loop
    vertex 2.500000 12.500000 -26.500000
    vertex 1.500000 12.500000 -26.500000
    vertex 2.500000 13.500000 -26.500000
  endloop
endfacet
facet normal 0.000000 0.000000 -1.000000
  outer loop
    vertex 1.500000 13.500000 -26.500000
    vertex 2.500000 13.500000 -26.500000
    vertex 1.500000 12.500000 -26.500000
  endloop
endfacet
facet normal 0.000000 0.000000 -1.000000
  outer loop
    vertex 1.500000 12.500000 -26.500000
    vertex 0.500000 12.500000 -26.500000
    vertex 0.500000 13.500000 -26.500000
  endloop
endfacet
facet normal 0.000000 0.000000 -1.000000
  outer loop
    vertex 1.500000 12.500000 -26.500000
    vertex 0.500000 13.500000 -26.500000
    vertex 1.500000 13.500000 -26.500000
  endloop
endfacet
facet normal 0.000000 0.000000 -1.000000
  outer loop
    vertex 0.500000 12.500000 -26.500000
    vertex -0.500000 12.500000 -26.500000
    vertex -0.500000 13.500000 -26.500000
  endloop
endfacet
facet normal 0.000000 0.000000 -1.000000
  outer loop
    vertex 0.500000 12.500000 -26.500000
    vertex -0.500000 13.500000 -26.500000
    vertex 0.500000 13.500000 -26.500000
  endloop
endfacet
facet normal 0.000000 0.000000 -1.000000
  outer loop
    vertex -0.500000 12.500000 -26.500000
    vertex -1.500000 12.500000 -26.500000
    vertex -1.500000 13.500000 -26.500000
  endloop
endfacet
facet normal 0.000000 0.000000 -1.000000
  outer loop
    vertex -0.500000 12.500000 -26.500000
    vertex -1.500000 13.500000 -26.500000
    vertex -0.500000 13.500000 -26.500000
  endloop
endfacet
facet normal 0.000000 0.000000 -1.000000
  outer loop
    vertex -1.500000 12.500000 -26.500000
    vertex -2.500000 12.500000 -26.500000
    vertex -2.500000 13.500000 -26.500000
  endloop
endfacet
facet normal 0.000000 0.000000 -1.000000
  outer loop
    vertex -1.500000 12.500000 -26.500000
    vertex -2.500000 13.500000 -26.500000
    vertex -1.500000 13.500000 -26.500000
  endloop
endfacet
facet normal 0.000000 0.000000 -1.000000
  outer loop
    vertex -2.500000 12.500000 -26.500000
    vertex -3.500000 12.500000 -26.500000
    vertex -3.500000 13.500000 -26.500000
  endloop
endfacet
facet normal 0.000000 0.000000 -1.000000
  outer loop
    vertex -2.500000 12.500000 -26.500000
    vertex -3.500000 13.500000 -26.500000
    vertex -2.500000 13.500000 -26.500000
  endloop
endfacet
facet normal 0.000000 0.000000 -1.000000
  outer loop
    vertex -3.500000 12.500000 -26.500000
    vertex -4.500000 12.500000 -26.500000
    vertex -4.500000 13.500000 -26.500000
  endloop
endfacet
facet normal 0.000000 0.000000 -1.000000
  outer loop
    vertex -3.500000 12.500000 -26.500000
    vertex -4.500000 13.500000 -26.500000
    vertex -3.500000 13.500000 -26.500000
  endloop
endfacet
facet normal 0.000000 0.000000 -1.000000
  outer loop
    vertex -4.500000 12.500000 -26.500000
    vertex -5.500000 12.500000 -26.500000
    vertex -4.500000 13.500000 -26.500000
  endloop
endfacet
facet normal 0.000000 0.000000 -1.000000
  outer loop
    vertex -5.500000 13.500000 -26.500000
    vertex -4.500000 13.500000 -26.500000
    vertex -5.500000 12.500000 -26.500000
  endloop
endfacet
facet normal 0.000000 0.000000 -1.000000
  outer loop
    vertex -5.500000 12.500000 -26.500000
    vertex -6.500000 12.500000 -26.500000
    vertex -5.500000 13.500000 -26.500000
  endloop
endfacet
facet normal 0.000000 0.000000 -1.000000
  outer loop
    vertex -6.500000 13.500000 -26.500000
    vertex -5.500000 13.500000 -26.500000
    vertex -6.500000 12.500000 -26.500000
  endloop
endfacet
facet normal -0.000000 -1.000000 -0.000000
  outer loop
    vertex 2.500000 13.500000 -22.500000
    vertex 1.500000 13.500000 -22.500000
    vertex 2.500000 13.500000 -23.500000
  endloop
endfacet
facet normal 0.000000 -1.000000 0.000000
  outer loop
    vertex 1.500000 13.500000 -23.500000
    vertex 2.500000 13.500000 -23.500000
    vertex 1.500000 13.500000 -22.500000
  endloop
endfacet
facet normal 0.000000 -0.000000 1.000000
  outer loop
    vertex 2.500000 13.500000 -22.500000
    vertex 2.500000 14.500000 -22.500000
    vertex 1.500000 14.500000 -22.500000
  endloop
endfacet
facet normal 0.000000 0.000000 1.000000
  outer loop
    vertex 2.500000 13.500000 -22.500000
    vertex 1.500000 14.500000 -22.500000
    vertex 1.500000 13.500000 -22.500000
  endloop
endfacet
facet normal 1.000000 0.000000 0.000000
  outer loop
    vertex 2.500000 13.500000 -22.500000
    vertex 2.500000 13.500000 -23.500000
    vertex 2.500000 14.500000 -23.500000
  endloop
endfacet
facet normal 1.000000 -0.000000 0.000000
  outer loop
    vertex 2.500000 13.500000 -22.500000
    vertex 2.500000 14.500000 -23.500000
    vertex 2.500000 14.500000 -22.500000
  endloop
endfacet
facet normal -1.000000 0.000000 0.000000
  outer loop
    vertex 1.500000 13.500000 -22.500000
    vertex 1.500000 14.500000 -22.500000
    vertex 1.500000 14.500000 -23.500000
  endloop
endfacet
facet normal -1.000000 0.000000 0.000000
  outer loop
    vertex 1.500000 13.500000 -22.500000
    vertex 1.500000 14.500000 -23.500000
    vertex 1.500000 13.500000 -23.500000
  endloop
endfacet
facet normal 0.000000 1.000000 0.000000
  outer loop
    vertex -1.500000 13.500000 -22.500000
    vertex -1.500000 13.500000 -23.500000
    vertex -2.500000 13.500000 -22.500000
  endloop
endfacet
facet normal 0.000000 1.000000 0.000000
  outer loop
    vertex -2.500000 13.500000 -23.500000
    vertex -2.500000 13.500000 -22.500000
    vertex -1.500000 13.500000 -23.500000
  endloop
endfacet
facet normal 0.000000 1.000000 0.000000
  outer loop
    vertex -2.500000 13.500000 -22.500000
    vertex -2.500000 13.500000 -23.500000
    vertex -3.500000 13.500000 -22.500000
  endloop
endfacet
facet normal 0.000000 1.000000 0.000000
  outer loop
    vertex -3.500000 13.500000 -23.500000
    vertex -3.500000 13.500000 -22.500000
    vertex -2.500000 13.500000 -23.500000
  endloop
endfacet
facet normal 0.000000 1.000000 0.000000
  outer loop
    vertex -3.500000 13.500000 -22.500000
    vertex -3.500000 13.500000 -23.500000
    vertex -4.500000 13.500000 -22.500000
  endloop
endfacet
facet normal 0.000000 1.000000 0.000000
  outer loop
    vertex -4.500000 13.500000 -23.500000
    vertex -4.500000 13.500000 -22.500000
    vertex -3.500000 13.500000 -23.500000
  endloop
endfacet
facet normal 0.000000 1.000000 0.000000
  outer loop
    vertex -4.500000 13.500000 -22.500000
    vertex -4.500000 13.500000 -23.500000
    vertex -5.500000 13.500000 -22.500000
  endloop
endfacet
facet normal 0.000000 1.000000 0.000000
  outer loop
    vertex -5.500000 13.500000 -23.500000
    vertex -5.500000 13.500000 -22.500000
    vertex -4.500000 13.500000 -23.500000
  endloop
endfacet
facet normal 0.000000 1.000000 0.000000
  outer loop
    vertex -5.500000 13.500000 -22.500000
    vertex -5.500000 13.500000 -23.500000
    vertex -6.500000 13.500000 -22.500000
  endloop
endfacet
facet normal 0.000000 1.000000 0.000000
  outer loop
    vertex -6.500000 13.500000 -23.500000
    vertex -6.500000 13.500000 -22.500000
    vertex -5.500000 13.500000 -23.500000
  endloop
endfacet
facet normal 1.000000 0.000000 0.000000
  outer loop
    vertex 2.500000 13.500000 -23.500000
    vertex 2.500000 13.500000 -24.500000
    vertex 2.500000 14.500000 -24.500000
  endloop
endfacet
facet normal 1.000000 -0.000000 0.000000
  outer loop
    vertex 2.500000 13.500000 -23.500000
    vertex 2.500000 14.500000 -24.500000
    vertex 2.500000 14.500000 -23.500000
  endloop
endfacet
facet normal 0.000000 -0.000000 1.000000
  outer loop
    vertex 1.500000 13.500000 -23.500000
    vertex 1.500000 14.500000 -23.500000
    vertex 0.500000 13.500000 -23.500000
  endloop
endfacet
facet normal -0.000000 0.000000 1.000000
  outer loop
    vertex 0.500000 14.500000 -23.500000
    vertex 0.500000 13.500000 -23.500000
    vertex 1.500000 14.500000 -23.500000
  endloop
endfacet
facet normal 0.000000 -0.000000 1.000000
  outer loop
    vertex 0.500000 13.500000 -23.500000
    vertex 0.500000 14.500000 -23.500000
    vertex -0.500000 13.500000 -23.500000
  endloop
endfacet
facet normal -0.000000 0.000000 1.000000
  outer loop
    vertex -0.500000 14.500000 -23.500000
    vertex -0.500000 13.500000 -23.500000
    vertex 0.500000 14.500000 -23.500000
  endloop
endfacet
facet normal 0.000000 1.000000 0.000000
  outer loop
    vertex -0.500000 13.500000 -23.500000
    vertex -0.500000 13.500000 -24.500000
    vertex -1.500000 13.500000 -24.500000
  endloop
endfacet
facet normal 0.000000 1.000000 0.000000
  outer loop
    vertex -0.500000 13.500000 -23.500000
    vertex -1.500000 13.500000 -24.500000
    vertex -1.500000 13.500000 -23.500000
  endloop
endfacet
facet normal -1.000000 0.000000 0.000000
  outer loop
    vertex -0.500000 13.500000 -23.500000
    vertex -0.500000 14.500000 -23.500000
    vertex -0.500000 13.500000 -24.500000
  endloop
endfacet
facet normal -1.000000 0.000000 0.000000
  outer loop
    vertex -0.500000 14.500000 -24.500000
    vertex -0.500000 13.500000 -24.500000
    vertex -0.500000 14.500000 -23.500000
  endloop
endfacet
facet normal 0.000000 1.000000 0.000000
  outer loop
    vertex -1.500000 13.500000 -23.500000
    vertex -1.500000 13.500000 -24.500000
    vertex -2.500000 13.500000 -24.500000
  endloop
endfacet
facet normal 0.000000 1.000000 0.000000
  outer loop
    vertex -1.500000 13.500000 -23.500000
    vertex -2.500000 13.500000 -24.500000
    vertex -2.500000 13.500000 -23.500000
  endloop
endfacet
facet normal 0.000000 -0.000000 1.000000
  outer loop
    vertex -2.500000 13.500000 -23.500000
    vertex -2.500000 14.500000 -23.500000
    vertex -3.500000 13.500000 -23.500000
  endloop
endfacet
facet normal -0.000000 0.000000 1.000000
  outer loop
    vertex -3.500000 14.500000 -23.500000
    vertex -3.500000 13.500000 -23.500000
    vertex -2.500000 14.500000 -23.500000
  endloop
endfacet
facet normal 1.000000 -0.000000 0.000000
  outer loop
    vertex -2.500000 13.500000 -23.500000
    vertex -2.500000 13.500000 -24.500000
    vertex -2.500000 14.500000 -23.500000
  endloop
endfacet
facet normal 1.000000 0.000000 -0.000000
  outer loop
    vertex -2.500000 14.500000 -24.500000
    vertex -2.500000 14.500000 -23.500000
    vertex -2.500000 13.500000 -24.500000
  endloop
endfacet
facet normal 0.000000 -0.000000 1.000000
  outer loop
    vertex -3.500000 13.500000 -23.500000
    vertex -3.500000 14.500000 -23.500000
    vertex -4.500000 13.500000 -23.500000
  endloop
endfacet
facet normal -0.000000 0.000000 1.000000
  outer loop
    vertex -4.500000 14.500000 -23.500000
    vertex -4.500000 13.500000 -23.500000
    vertex -3.500000 14.500000 -23.500000
  endloop
endfacet
facet normal 0.000000 -0.000000 1.000000
  outer loop
    vertex -4.500000 13.500000 -23.500000
    vertex -4.500000 14.500000 -23.500000
    vertex -5.500000 13.500000 -23.500000
  endloop
endfacet
facet normal -0.000000 0.000000 1.000000
  outer loop
    vertex -5.500000 14.500000 -23.500000
    vertex -5.500000 13.500000 -23.500000
    vertex -4.500000 14.500000 -23.500000
  endloop
endfacet
facet normal 0.000000 -0.000000 1.000000
  outer loop
    vertex -5.500000 13.500000 -23.500000
    vertex -5.500000 14.500000 -23.500000
    vertex -6.500000 14.500000 -23.500000
  endloop
endfacet
facet normal 0.000000 0.000000 1.000000
  outer loop
    vertex -5.500000 13.500000 -23.500000
    vertex -6.500000 14.500000 -23.500000
    vertex -6.500000 13.500000 -23.500000
  endloop
endfacet
facet normal -1.000000 0.000000 0.000000
  outer loop
    vertex -6.500000 13.500000 -23.500000
    vertex -6.500000 14.500000 -23.500000
    vertex -6.500000 14.500000 -24.500000
  endloop
endfacet
facet normal -1.000000 0.000000 0.000000
  outer loop
    vertex -6.500000 13.500000 -23.500000
    vertex -6.500000 14.500000 -24.500000
    vertex -6.500000 13.500000 -24.500000
  endloop
endfacet
facet normal 0.000000 -0.000000 1.000000
  outer loop
    vertex 5.500000 13.500000 -24.500000
    vertex 5.500000 14.500000 -24.500000
    vertex 4.500000 14.500000 -24.500000
  endloop
endfacet
facet normal 0.000000 0.000000 1.000000
  outer loop
    vertex 5.500000 13.500000 -24.500000
    vertex 4.500000 14.500000 -24.500000
    vertex 4.500000 13.500000 -24.500000
  endloop
endfacet
facet normal 1.000000 -0.000000 0.000000
  outer loop
    vertex 5.500000 13.500000 -24.500000
    vertex 5.500000 13.500000 -25.500000
    vertex 5.500000 14.500000 -24.500000
  endloop
endfacet
facet normal 1.000000 0.000000 -0.000000
  outer loop
    vertex 5.500000 14.500000 -25.500000
    vertex 5.500000 14.500000 -24.500000
    vertex 5.500000 13.500000 -25.500000
  endloop
endfacet
facet normal 0.000000 -0.000000 1.000000
  outer loop
    vertex 4.500000 13.500000 -24.500000
    vertex 4.500000 14.500000 -24.500000
    vertex 3.500000 14.500000 -24.500000
  endloop
endfacet
facet normal 0.000000 0.000000 1.000000
  outer loop
    vertex 4.500000 13.500000 -24.500000
    vertex 3.500000 14.500000 -24.500000
    vertex 3.500000 13.500000 -24.500000
  endloop
endfacet
facet normal 0.000000 -0.000000 1.000000
  outer loop
    vertex 3.500000 13.500000 -24.500000
    vertex 3.500000 14.500000 -24.500000
    vertex 2.500000 14.500000 -24.500000
  endloop
endfacet
facet normal 0.000000 0.000000 1.000000
  outer loop
    vertex 3.500000 13.500000 -24.500000
    vertex 2.500000 14.500000 -24.500000
    vertex 2.500000 13.500000 -24.500000
  endloop
endfacet
facet normal 0.000000 -0.000000 1.000000
  outer loop
    vertex -0.500000 13.500000 -24.500000
    vertex -0.500000 14.500000 -24.500000
    vertex -1.500000 13.500000 -24.500000
  endloop
endfacet
facet normal -0.000000 0.000000 1.000000
  outer loop
    vertex -1.500000 14.500000 -24.500000
    vertex -1.500000 13.500000 -24.500000
    vertex -0.500000 14.500000 -24.500000
  endloop
endfacet
facet normal 0.000000 -0.000000 1.000000
  outer loop
    vertex -1.500000 13.500000 -24.500000
    vertex -1.500000 14.500000 -24.500000
    vertex -2.500000 13.500000 -24.500000
  endloop
endfacet
facet normal -0.000000 0.000000 1.000000
  outer loop
    vertex -2.500000 14.500000 -24.500000
    vertex -2.500000 13.500000 -24.500000
    vertex -1.500000 14.500000 -24.500000
  endloop
endfacet
facet normal -0.000000 -1.000000 0.000000
  outer loop
    vertex -6.500000 13.500000 -24.500000
    vertex -7.500000 13.500000 -24.500000
    vertex -7.500000 13.500000 -25.500000
  endloop
endfacet
facet normal 0.000000 -1.000000 -0.000000
  outer loop
    vertex -6.500000 13.500000 -24.500000
    vertex -7.500000 13.500000 -25.500000
    vertex -6.500000 13.500000 -25.500000
  endloop
endfacet
facet normal 0.000000 -0.000000 1.000000
  outer loop
    vertex -6.500000 13.500000 -24.500000
    vertex -6.500000 14.500000 -24.500000
    vertex -7.500000 13.500000 -24.500000
  endloop
endfacet
facet normal -0.000000 0.000000 1.000000
  outer loop
    vertex -7.500000 14.500000 -24.500000
    vertex -7.500000 13.500000 -24.500000
    vertex -6.500000 14.500000 -24.500000
  endloop
endfacet
facet normal -1.000000 0.000000 0.000000
  outer loop
    vertex -7.500000 13.500000 -24.500000
    vertex -7.500000 14.500000 -24.500000
    vertex -7.500000 14.500000 -25.500000
  endloop
endfacet
facet normal -1.000000 0.000000 0.000000
  outer loop
    vertex -7.500000 13.500000 -24.500000
    vertex -7.500000 14.500000 -25.500000
    vertex -7.500000 13.500000 -25.500000
  endloop
endfacet
facet normal 1.000000 0.000000 0.000000
  outer loop
    vertex 5.500000 13.500000 -25.500000
    vertex 5.500000 13.500000 -26.500000
    vertex 5.500000 14.500000 -26.500000
  endloop
endfacet
facet normal 1.000000 -0.000000 0.000000
  outer loop
    vertex 5.500000 13.500000 -25.500000
    vertex 5.500000 14.500000 -26.500000
    vertex 5.500000 14.500000 -25.500000
  endloop
endfacet
facet normal 0.000000 1.000000 0.000000
  outer loop
    vertex -5.500000 13.500000 -25.500000
    vertex -5.500000 13.500000 -26.500000
    vertex -6.500000 13.500000 -25.500000
  endloop
endfacet
facet normal 0.000000 1.000000 0.000000
  outer loop
    vertex -6.500000 13.500000 -26.500000
    vertex -6.500000 13.500000 -25.500000
    vertex -5.500000 13.500000 -26.500000
  endloop
endfacet
facet normal 0.000000 0.000000 -1.000000
  outer loop
    vertex -5.500000 13.500000 -25.500000
    vertex -6.500000 13.500000 -25.500000
    vertex -6.500000 14.500000 -25.500000
  endloop
endfacet
facet normal 0.000000 0.000000 -1.000000
  outer loop
    vertex -5.500000 13.500000 -25.500000
    vertex -6.500000 14.500000 -25.500000
    vertex -5.500000 14.500000 -25.500000
  endloop
endfacet
facet normal -1.000000 0.000000 0.000000
  outer loop
    vertex -5.500000 13.500000 -25.500000
    vertex -5.500000 14.500000 -25.500000
    vertex -5.500000 14.500000 -26.500000
  endloop
endfacet
facet normal -1.000000 0.000000 0.000000
  outer loop
    vertex -5.500000 13.500000 -25.500000
    vertex -5.500000 14.500000 -26.500000
    vertex -5.500000 13.500000 -26.500000
  endloop
endfacet
facet normal 0.000000 0.000000 -1.000000
  outer loop
    vertex -6.500000 13.500000 -25.500000
    vertex -7.500000 13.500000 -25.500000
    vertex -7.500000 14.500000 -25.500000
  endloop
endfacet
facet normal 0.000000 0.000000 -1.000000
  outer loop
    vertex -6.500000 13.500000 -25.500000
    vertex -7.500000 14.500000 -25.500000
    vertex -6.500000 14.500000 -25.500000
  endloop
endfacet
facet normal 0.000000 0.000000 -1.000000
  outer loop
    vertex 5.500000 13.500000 -26.500000
    vertex 4.500000 13.500000 -26.500000
    vertex 5.500000 14.500000 -26.500000
  endloop
endfacet
facet normal 0.000000 0.000000 -1.000000
  outer loop
    vertex 4.500000 14.500000 -26.500000
    vertex 5.500000 14.500000 -26.500000
    vertex 4.500000 13.500000 -26.500000
  endloop
endfacet
facet normal 0.000000 0.000000 -1.000000
  outer loop
    vertex 4.500000 13.500000 -26.500000
    vertex 3.500000 13.500000 -26.500000
    vertex 4.500000 14.500000 -26.500000
  endloop
endfacet
facet normal 0.000000 0.000000 -1.000000
  outer loop
    vertex 3.500000 14.500000 -26.500000
    vertex 4.500000 14.500000 -26.500000
    vertex 3.500000 13.500000 -26.500000
  endloop
endfacet
facet normal 0.000000 0.000000 -1.000000
  outer loop
    vertex 3.500000 13.500000 -26.500000
    vertex 2.500000 13.500000 -26.500000
    vertex 3.500000 14.500000 -26.500000
  endloop
endfacet
facet normal 0.000000 0.000000 -1.000000
  outer loop
    vertex 2.500000 14.500000 -26.500000
    vertex 3.500000 14.500000 -26.500000
    vertex 2.500000 13.500000 -26.500000
  endloop
endfacet
facet normal 0.000000 0.000000 -1.000000
  outer loop
    vertex 2.500000 13.500000 -26.500000
    vertex 1.500000 13.500000 -26.500000
    vertex 2.500000 14.500000 -26.500000
  endloop
endfacet
facet normal 0.000000 0.000000 -1.000000
  outer loop
    vertex 1.500000 14.500000 -26.500000
    vertex 2.500000 14.500000 -26.500000
    vertex 1.500000 13.500000 -26.500000
  endloop
endfacet
facet normal 0.000000 0.000000 -1.000000
  outer loop
    vertex 1.500000 13.500000 -26.500000
    vertex 0.500000 13.500000 -26.500000
    vertex 1.500000 14.500000 -26.500000
  endloop
endfacet
facet normal 0.000000 0.000000 -1.000000
  outer loop
    vertex 0.500000 14.500000 -26.500000
    vertex 1.500000 14.500000 -26.500000
    vertex 0.500000 13.500000 -26.500000
  endloop
endfacet
facet normal -0.000000 -1.000000 -0.000000
  outer loop
    vertex 0.500000 13.500000 -26.500000
    vertex -0.500000 13.500000 -26.500000
    vertex 0.500000 13.500000 -27.500000
  endloop
endfacet
facet normal 0.000000 -1.000000 0.000000
  outer loop
    vertex -0.500000 13.500000 -27.500000
    vertex 0.500000 13.500000 -27.500000
    vertex -0.500000 13.500000 -26.500000
  endloop
endfacet
facet normal 1.000000 0.000000 0.000000
  outer loop
    vertex 0.500000 13.500000 -26.500000
    vertex 0.500000 13.500000 -27.500000
    vertex 0.500000 14.500000 -27.500000
  endloop
endfacet
facet normal 1.000000 -0.000000 0.000000
  outer loop
    vertex 0.500000 13.500000 -26.500000
    vertex 0.500000 14.500000 -27.500000
    vertex 0.500000 14.500000 -26.500000
  endloop
endfacet
facet normal -0.000000 -1.000000 -0.000000
  outer loop
    vertex -0.500000 13.500000 -26.500000
    vertex -1.500000 13.500000 -26.500000
    vertex -0.500000 13.500000 -27.500000
  endloop
endfacet
facet normal 0.000000 -1.000000 0.000000
  outer loop
    vertex -1.500000 13.500000 -27.500000
    vertex -0.500000 13.500000 -27.500000
    vertex -1.500000 13.500000 -26.500000
  endloop
endfacet
facet normal -0.000000 -1.000000 0.000000
  outer loop
    vertex -1.500000 13.500000 -26.500000
    vertex -2.500000 13.500000 -26.500000
    vertex -2.500000 13.500000 -27.500000
  endloop
endfacet
facet normal 0.000000 -1.000000 -0.000000
  outer loop
    vertex -1.500000 13.500000 -26.500000
    vertex -2.500000 13.500000 -27.500000
    vertex -1.500000 13.500000 -27.500000
  endloop
endfacet
facet normal 0.000000 0.000000 -1.000000
  outer loop
    vertex -2.500000 13.500000 -26.500000
    vertex -3.500000 13.500000 -26.500000
    vertex -3.500000 14.500000 -26.500000
  endloop
endfacet
facet normal 0.000000 0.000000 -1.000000
  outer loop
    vertex -2.500000 13.500000 -26.500000
    vertex -3.500000 14.500000 -26.500000
    vertex -2.500000 14.500000 -26.500000
  endloop
endfacet
facet normal -1.000000 0.000000 0.000000
  outer loop
    vertex -2.500000 13.500000 -26.500000
    vertex -2.500000 14.500000 -26.500000
    vertex -2.500000 13.500000 -27.500000
  endloop
endfacet
facet normal -1.000000 0.000000 0.000000
  outer loop
    vertex -2.500000 14.500000 -27.500000
    vertex -2.500000 13.500000 -27.500000
    vertex -2.500000 14.500000 -26.500000
  endloop
endfacet
facet normal 0.000000 0.000000 -1.000000
  outer loop
    vertex -3.500000 13.500000 -26.500000
    vertex -4.500000 13.500000 -26.500000
    vertex -4.500000 14.500000 -26.500000
  endloop
endfacet
facet normal 0.000000 0.000000 -1.000000
  outer loop
    vertex -3.500000 13.500000 -26.500000
    vertex -4.500000 14.500000 -26.500000
    vertex -3.500000 14.500000 -26.500000
  endloop
endfacet
facet normal 0.000000 0.000000 -1.000000
  outer loop
    vertex -4.500000 13.500000 -26.500000
    vertex -5.500000 13.500000 -26.500000
    vertex -5.500000 14.500000 -26.500000
  endloop
endfacet
facet normal 0.000000 0.000000 -1.000000
  outer loop
    vertex -4.500000 13.500000 -26.500000
    vertex -5.500000 14.500000 -26.500000
    vertex -4.500000 14.500000 -26.500000
  endloop
endfacet
facet normal 0.000000 0.000000 -1.000000
  outer loop
    vertex 0.500000 13.500000 -27.500000
    vertex -0.500000 13.500000 -27.500000
    vertex 0.500000 14.500000 -27.500000
  endloop
endfacet
facet normal 0.000000 0.000000 -1.000000
  outer loop
    vertex -0.500000 14.500000 -27.500000
    vertex 0.500000 14.500000 -27.500000
    vertex -0.500000 13.500000 -27.500000
  endloop
endfacet
facet normal 0.000000 0.000000 -1.000000
  outer loop
    vertex -0.500000 13.500000 -27.500000
    vertex -1.500000 13.500000 -27.500000
    vertex -0.500000 14.500000 -27.500000
  endloop
endfacet
facet normal 0.000000 0.000000 -1.000000
  outer loop
    vertex -1.500000 14.500000 -27.500000
    vertex -0.500000 14.500000 -27.500000
    vertex -1.500000 13.500000 -27.500000
  endloop
endfacet
facet normal 0.000000 0.000000 -1.000000
  outer loop
    vertex -1.500000 13.500000 -27.500000
    vertex -2.500000 13.500000 -27.500000
    vertex -1.500000 14.500000 -27.500000
  endloop
endfacet
facet normal 0.000000 0.000000 -1.000000
  outer loop
    vertex -2.500000 14.500000 -27.500000
    vertex -1.500000 14.500000 -27.500000
    vertex -2.500000 13.500000 -27.500000
  endloop
endfacet
facet normal 0.000000 1.000000 0.000000
  outer loop
    vertex 2.500000 14.500000 -22.500000
    vertex 2.500000 14.500000 -23.500000
    vertex 1.500000 14.500000 -22.500000
  endloop
endfacet
facet normal 0.000000 1.000000 0.000000
  outer loop
    vertex 1.500000 14.500000 -23.500000
    vertex 1.500000 14.500000 -22.500000
    vertex 2.500000 14.500000 -23.500000
  endloop
endfacet
facet normal 0.000000 1.000000 0.000000
  outer loop
    vertex 2.500000 14.500000 -23.500000
    vertex 2.500000 14.500000 -24.500000
    vertex 1.500000 14.500000 -24.500000
  endloop
endfacet
facet normal 0.000000 1.000000 0.000000
  outer loop
    vertex 2.500000 14.500000 -23.500000
    vertex 1.500000 14.500000 -24.500000
    vertex 1.500000 14.500000 -23.500000
  endloop
endfacet
facet normal 0.000000 1.000000 0.000000
  outer loop
    vertex 1.500000 14.500000 -23.500000
    vertex 1.500000 14.500000 -24.500000
    vertex 0.500000 14.500000 -24.500000
  endloop
endfacet
facet normal 0.000000 1.000000 0.000000
  outer loop
    vertex 1.500000 14.500000 -23.500000
    vertex 0.500000 14.500000 -24.500000
    vertex 0.500000 14.500000 -23.500000
  endloop
endfacet
facet normal 0.000000 1.000000 0.000000
  outer loop
    vertex 0.500000 14.500000 -23.500000
    vertex 0.500000 14.500000 -24.500000
    vertex -0.500000 14.500000 -23.500000
  endloop
endfacet
facet normal 0.000000 1.000000 0.000000
  outer loop
    vertex -0.500000 14.500000 -24.500000
    vertex -0.500000 14.500000 -23.500000
    vertex 0.500000 14.500000 -24.500000
  endloop
endfacet
facet normal 0.000000 1.000000 0.000000
  outer loop
    vertex -2.500000 14.500000 -23.500000
    vertex -2.500000 14.500000 -24.500000
    vertex -3.500000 14.500000 -23.500000
  endloop
endfacet
facet normal 0.000000 1.000000 0.000000
  outer loop
    vertex -3.500000 14.500000 -24.500000
    vertex -3.500000 14.500000 -23.500000
    vertex -2.500000 14.500000 -24.500000
  endloop
endfacet
facet normal 0.000000 1.000000 0.000000
  outer loop
    vertex -3.500000 14.500000 -23.500000
    vertex -3.500000 14.500000 -24.500000
    vertex -4.500000 14.500000 -23.500000
  endloop
endfacet
facet normal 0.000000 1.000000 0.000000
  outer loop
    vertex -4.500000 14.500000 -24.500000
    vertex -4.500000 14.500000 -23.500000
    vertex -3.500000 14.500000 -24.500000
  endloop
endfacet
facet normal 0.000000 1.000000 0.000000
  outer loop
    vertex -4.500000 14.500000 -23.500000
    vertex -4.500000 14.500000 -24.500000
    vertex -5.500000 14.500000 -23.500000
  endloop
endfacet
facet normal 0.000000 1.000000 0.000000
  outer loop
    vertex -5.500000 14.500000 -24.500000
    vertex -5.500000 14.500000 -23.500000
    vertex -4.500000 14.500000 -24.500000
  endloop
endfacet
facet normal 0.000000 1.000000 0.000000
  outer loop
    vertex -5.500000 14.500000 -23.500000
    vertex -5.500000 14.500000 -24.500000
    vertex -6.500000 14.500000 -23.500000
  endloop
endfacet
facet normal 0.000000 1.000000 0.000000
  outer loop
    vertex -6.500000 14.500000 -24.500000
    vertex -6.500000 14.500000 -23.500000
    vertex -5.500000 14.500000 -24.500000
  endloop
endfacet
facet normal 0.000000 -0.000000 1.000000
  outer loop
    vertex 5.500000 14.500000 -24.500000
    vertex 5.500000 15.500000 -24.500000
    vertex 4.500000 14.500000 -24.500000
  endloop
endfacet
facet normal -0.000000 0.000000 1.000000
  outer loop
    vertex 4.500000 15.500000 -24.500000
    vertex 4.500000 14.500000 -24.500000
    vertex 5.500000 15.500000 -24.500000
  endloop
endfacet
facet normal 1.000000 0.000000 0.000000
  outer loop
    vertex 5.500000 14.500000 -24.500000
    vertex 5.500000 14.500000 -25.500000
    vertex 5.500000 15.500000 -25.500000
  endloop
endfacet
facet normal 1.000000 -0.000000 0.000000
  outer loop
    vertex 5.500000 14.500000 -24.500000
    vertex 5.500000 15.500000 -25.500000
    vertex 5.500000 15.500000 -24.500000
  endloop
endfacet
facet normal 0.000000 -0.000000 1.000000
  outer loop
    vertex 4.500000 14.500000 -24.500000
    vertex 4.500000 15.500000 -24.500000
    vertex 3.500000 15.500000 -24.500000
  endloop
endfacet
facet normal 0.000000 0.000000 1.000000
  outer loop
    vertex 4.500000 14.500000 -24.500000
    vertex 3.500000 15.500000 -24.500000
    vertex 3.500000 14.500000 -24.500000
  endloop
endfacet
facet normal 0.000000 -0.000000 1.000000
  outer loop
    vertex 3.500000 14.500000 -24.500000
    vertex 3.500000 15.500000 -24.500000
    vertex 2.500000 15.500000 -24.500000
  endloop
endfacet
facet normal 0.000000 0.000000 1.000000
  outer loop
    vertex 3.500000 14.500000 -24.500000
    vertex 2.500000 15.500000 -24.500000
    vertex 2.500000 14.500000 -24.500000
  endloop
endfacet
facet normal 0.000000 -0.000000 1.000000
  outer loop
    vertex 2.500000 14.500000 -24.500000
    vertex 2.500000 15.500000 -24.500000
    vertex 1.500000 15.500000 -24.500000
  endloop
endfacet
facet normal 0.000000 0.000000 1.000000
  outer loop
    vertex 2.500000 14.500000 -24.500000
    vertex 1.500000 15.500000 -24.500000
    vertex 1.500000 14.500000 -24.500000
  endloop
endfacet
facet normal 0.000000 -0.000000 1.000000
  outer loop
    vertex 1.500000 14.500000 -24.500000
    vertex 1.500000 15.500000 -24.500000
    vertex 0.500000 15.500000 -24.500000
  endloop
endfacet
facet normal 0.000000 0.000000 1.000000
  outer loop
    vertex 1.500000 14.500000 -24.500000
    vertex 0.500000 15.500000 -24.500000
    vertex 0.500000 14.500000 -24.500000
  endloop
endfacet
facet normal 0.000000 -0.000000 1.000000
  outer loop
    vertex 0.500000 14.500000 -24.500000
    vertex 0.500000 15.500000 -24.500000
    vertex -0.500000 15.500000 -24.500000
  endloop
endfacet
facet normal 0.000000 0.000000 1.000000
  outer loop
    vertex 0.500000 14.500000 -24.500000
    vertex -0.500000 15.500000 -24.500000
    vertex -0.500000 14.500000 -24.500000
  endloop
endfacet
facet normal 0.000000 -0.000000 1.000000
  outer loop
    vertex -0.500000 14.500000 -24.500000
    vertex -0.500000 15.500000 -24.500000
    vertex -1.500000 15.500000 -24.500000
  endloop
endfacet
facet normal 0.000000 0.000000 1.000000
  outer loop
    vertex -0.500000 14.500000 -24.500000
    vertex -1.500000 15.500000 -24.500000
    vertex -1.500000 14.500000 -24.500000
  endloop
endfacet
facet normal 0.000000 -0.000000 1.000000
  outer loop
    vertex -1.500000 14.500000 -24.500000
    vertex -1.500000 15.500000 -24.500000
    vertex -2.500000 15.500000 -24.500000
  endloop
endfacet
facet normal 0.000000 0.000000 1.000000
  outer loop
    vertex -1.500000 14.500000 -24.500000
    vertex -2.500000 15.500000 -24.500000
    vertex -2.500000 14.500000 -24.500000
  endloop
endfacet
facet normal 0.000000 -0.000000 1.000000
  outer loop
    vertex -2.500000 14.500000 -24.500000
    vertex -2.500000 15.500000 -24.500000
    vertex -3.500000 14.500000 -24.500000
  endloop
endfacet
facet normal -0.000000 0.000000 1.000000
  outer loop
    vertex -3.500000 15.500000 -24.500000
    vertex -3.500000 14.500000 -24.500000
    vertex -2.500000 15.500000 -24.500000
  endloop
endfacet
facet normal 0.000000 -0.000000 1.000000
  outer loop
    vertex -3.500000 14.500000 -24.500000
    vertex -3.500000 15.500000 -24.500000
    vertex -4.500000 14.500000 -24.500000
  endloop
endfacet
facet normal -0.000000 0.000000 1.000000
  outer loop
    vertex -4.500000 15.500000 -24.500000
    vertex -4.500000 14.500000 -24.500000
    vertex -3.500000 15.500000 -24.500000
  endloop
endfacet
facet normal 0.000000 1.000000 0.000000
  outer loop
    vertex -4.500000 14.500000 -24.500000
    vertex -4.500000 14.500000 -25.500000
    vertex -5.500000 14.500000 -25.500000
  endloop
endfacet
facet normal 0.000000 1.000000 0.000000
  outer loop
    vertex -4.500000 14.500000 -24.500000
    vertex -5.500000 14.500000 -25.500000
    vertex -5.500000 14.500000 -24.500000
  endloop
endfacet
facet normal -1.000000 0.000000 0.000000
  outer loop
    vertex -4.500000 14.500000 -24.500000
    vertex -4.500000 15.500000 -24.500000
    vertex -4.500000 14.500000 -25.500000
  endloop
endfacet
facet normal -1.000000 0.000000 0.000000
  outer loop
    vertex -4.500000 15.500000 -25.500000
    vertex -4.500000 14.500000 -25.500000
    vertex -4.500000 15.500000 -24.500000
  endloop
endfacet
facet normal 0.000000 1.000000 0.000000
  outer loop
    vertex -5.500000 14.500000 -24.500000
    vertex -5.500000 14.500000 -25.500000
    vertex -6.500000 14.500000 -24.500000
  endloop
endfacet
facet normal 0.000000 1.000000 0.000000
  outer loop
    vertex -6.500000 14.500000 -25.500000
    vertex -6.500000 14.500000 -24.500000
    vertex -5.500000 14.500000 -25.500000
  endloop
endfacet
facet normal 0.000000 1.000000 0.000000
  outer loop
    vertex -6.500000 14.500000 -24.500000
    vertex -6.500000 14.500000 -25.500000
    vertex -7.500000 14.500000 -24.500000
  endloop
endfacet
facet normal 0.000000 1.000000 0.000000
  outer loop
    vertex -7.500000 14.500000 -25.500000
    vertex -7.500000 14.500000 -24.500000
    vertex -6.500000 14.500000 -25.500000
  endloop
endfacet
facet normal 1.000000 -0.000000 0.000000
  outer loop
    vertex 5.500000 14.500000 -25.500000
    vertex 5.500000 14.500000 -26.500000
    vertex 5.500000 15.500000 -25.500000
  endloop
endfacet
facet normal 1.000000 0.000000 -0.000000
  outer loop
    vertex 5.500000 15.500000 -26.500000
    vertex 5.500000 15.500000 -25.500000
    vertex 5.500000 14.500000 -26.500000
  endloop
endfacet
facet normal 0.000000 1.000000 0.000000
  outer loop
    vertex -4.500000 14.500000 -25.500000
    vertex -4.500000 14.500000 -26.500000
    vertex -5.500000 14.500000 -26.500000
  endloop
endfacet
facet normal 0.000000 1.000000 0.000000
  outer loop
    vertex -4.500000 14.500000 -25.500000
    vertex -5.500000 14.500000 -26.500000
    vertex -5.500000 14.500000 -25.500000
  endloop
endfacet
facet normal -1.000000 0.000000 0.000000
  outer loop
    vertex -4.500000 14.500000 -25.500000
    vertex -4.500000 15.500000 -25.500000
    vertex -4.500000 14.500000 -26.500000
  endloop
endfacet
facet normal -1.000000 0.000000 0.000000
  outer loop
    vertex -4.500000 15.500000 -26.500000
    vertex -4.500000 14.500000 -26.500000
    vertex -4.500000 15.500000 -25.500000
  endloop
endfacet
facet normal 0.000000 0.000000 -1.000000
  outer loop
    vertex 5.500000 14.500000 -26.500000
    vertex 4.500000 14.500000 -26.500000
    vertex 5.500000 15.500000 -26.500000
  endloop
endfacet
facet normal 0.000000 0.000000 -1.000000
  outer loop
    vertex 4.500000 15.500000 -26.500000
    vertex 5.500000 15.500000 -26.500000
    vertex 4.500000 14.500000 -26.500000
  endloop
endfacet
facet normal 0.000000 0.000000 -1.000000
  outer loop
    vertex 4.500000 14.500000 -26.500000
    vertex 3.500000 14.500000 -26.500000
    vertex 4.500000 15.500000 -26.500000
  endloop
endfacet
facet normal 0.000000 0.000000 -1.000000
  outer loop
    vertex 3.500000 15.500000 -26.500000
    vertex 4.500000 15.500000 -26.500000
    vertex 3.500000 14.500000 -26.500000
  endloop
endfacet
facet normal 0.000000 0.000000 -1.000000
  outer loop
    vertex 3.500000 14.500000 -26.500000
    vertex 2.500000 14.500000 -26.500000
    vertex 2.500000 15.500000 -26.500000
  endloop
endfacet
facet normal 0.000000 0.000000 -1.000000
  outer loop
    vertex 3.500000 14.500000 -26.500000
    vertex 2.500000 15.500000 -26.500000
    vertex 3.500000 15.500000 -26.500000
  endloop
endfacet
facet normal 0.000000 0.000000 -1.000000
  outer loop
    vertex 2.500000 14.500000 -26.500000
    vertex 1.500000 14.500000 -26.500000
    vertex 1.500000 15.500000 -26.500000
  endloop
endfacet
facet normal 0.000000 0.000000 -1.000000
  outer loop
    vertex 2.500000 14.500000 -26.500000
    vertex 1.500000 15.500000 -26.500000
    vertex 2.500000 15.500000 -26.500000
  endloop
endfacet
facet normal 0.000000 0.000000 -1.000000
  outer loop
    vertex 1.500000 14.500000 -26.500000
    vertex 0.500000 14.500000 -26.500000
    vertex 0.500000 15.500000 -26.500000
  endloop
endfacet
facet normal 0.000000 0.000000 -1.000000
  outer loop
    vertex 1.500000 14.500000 -26.500000
    vertex 0.500000 15.500000 -26.500000
    vertex 1.500000 15.500000 -26.500000
  endloop
endfacet
facet normal 1.000000 0.000000 0.000000
  outer loop
    vertex 0.500000 14.500000 -26.500000
    vertex 0.500000 14.500000 -27.500000
    vertex 0.500000 15.500000 -27.500000
  endloop
endfacet
facet normal 1.000000 -0.000000 0.000000
  outer loop
    vertex 0.500000 14.500000 -26.500000
    vertex 0.500000 15.500000 -27.500000
    vertex 0.500000 15.500000 -26.500000
  endloop
endfacet
facet normal -0.000000 -1.000000 0.000000
  outer loop
    vertex -2.500000 14.500000 -26.500000
    vertex -3.500000 14.500000 -26.500000
    vertex -3.500000 14.500000 -27.500000
  endloop
endfacet
facet normal 0.000000 -1.000000 -0.000000
  outer loop
    vertex -2.500000 14.500000 -26.500000
    vertex -3.500000 14.500000 -27.500000
    vertex -2.500000 14.500000 -27.500000
  endloop
endfacet
facet normal 0.000000 0.000000 -1.000000
  outer loop
    vertex -3.500000 14.500000 -26.500000
    vertex -4.500000 14.500000 -26.500000
    vertex -4.500000 15.500000 -26.500000
  endloop
endfacet
facet normal 0.000000 0.000000 -1.000000
  outer loop
    vertex -3.500000 14.500000 -26.500000
    vertex -4.500000 15.500000 -26.500000
    vertex -3.500000 15.500000 -26.500000
  endloop
endfacet
facet normal -1.000000 0.000000 0.000000
  outer loop
    vertex -3.500000 14.500000 -26.500000
    vertex -3.500000 15.500000 -26.500000
    vertex -3.500000 14.500000 -27.500000
  endloop
endfacet
facet normal -1.000000 0.000000 0.000000
  outer loop
    vertex -3.500000 15.500000 -27.500000
    vertex -3.500000 14.500000 -27.500000
    vertex -3.500000 15.500000 -26.500000
  endloop
endfacet
facet normal -0.000000 -1.000000 -0.000000
  outer loop
    vertex 0.500000 14.500000 -27.500000
    vertex -0.500000 14.500000 -27.500000
    vertex 0.500000 14.500000 -28.500000
  endloop
endfacet
facet normal 0.000000 -1.000000 0.000000
  outer loop
    vertex -0.500000 14.500000 -28.500000
    vertex 0.500000 14.500000 -28.500000
    vertex -0.500000 14.500000 -27.500000
  endloop
endfacet
facet normal 1.000000 -0.000000 0.000000
  outer loop
    vertex 0.500000 14.500000 -27.500000
    vertex 0.500000 14.500000 -28.500000
    vertex 0.500000 15.500000 -27.500000
  endloop
endfacet
facet normal 1.000000 0.000000 -0.000000
  outer loop
    vertex 0.500000 15.500000 -28.500000
    vertex 0.500000 15.500000 -27.500000
    vertex 0.500000 14.500000 -28.500000
  endloop
endfacet
facet normal -0.000000 -1.000000 -0.000000
  outer loop
    vertex -0.500000 14.500000 -27.500000
    vertex -1.500000 14.500000 -27.500000
    vertex -0.500000 14.500000 -28.500000
  endloop
endfacet
facet normal 0.000000 -1.000000 0.000000
  outer loop
    vertex -1.500000 14.500000 -28.500000
    vertex -0.500000 14.500000 -28.500000
    vertex -1.500000 14.500000 -27.500000
  endloop
endfacet
facet normal -0.000000 -1.000000 -0.000000
  outer loop
    vertex -1.500000 14.500000 -27.500000
    vertex -2.500000 14.500000 -27.500000
    vertex -1.500000 14.500000 -28.500000
  endloop
endfacet
facet normal 0.000000 -1.000000 0.000000
  outer loop
    vertex -2.500000 14.500000 -28.500000
    vertex -1.500000 14.500000 -28.500000
    vertex -2.500000 14.500000 -27.500000
  endloop
endfacet
facet normal 0.000000 0.000000 -1.000000
  outer loop
    vertex -2.500000 14.500000 -27.500000
    vertex -3.500000 14.500000 -27.500000
    vertex -2.500000 15.500000 -27.500000
  endloop
endfacet
facet normal 0.000000 0.000000 -1.000000
  outer loop
    vertex -3.500000 15.500000 -27.500000
    vertex -2.500000 15.500000 -27.500000
    vertex -3.500000 14.500000 -27.500000
  endloop
endfacet
facet normal -1.000000 0.000000 0.000000
  outer loop
    vertex -2.500000 14.500000 -27.500000
    vertex -2.500000 15.500000 -27.500000
    vertex -2.500000 14.500000 -28.500000
  endloop
endfacet
facet normal -1.000000 0.000000 0.000000
  outer loop
    vertex -2.500000 15.500000 -28.500000
    vertex -2.500000 14.500000 -28.500000
    vertex -2.500000 15.500000 -27.500000
  endloop
endfacet
facet normal 0.000000 0.000000 -1.000000
  outer loop
    vertex 0.500000 14.500000 -28.500000
    vertex -0.500000 14.500000 -28.500000
    vertex 0.500000 15.500000 -28.500000
  endloop
endfacet
facet normal 0.000000 0.000000 -1.000000
  outer loop
    vertex -0.500000 15.500000 -28.500000
    vertex 0.500000 15.500000 -28.500000
    vertex -0.500000 14.500000 -28.500000
  endloop
endfacet
facet normal 0.000000 0.000000 -1.000000
  outer loop
    vertex -0.500000 14.500000 -28.500000
    vertex -1.500000 14.500000 -28.500000
    vertex -0.500000 15.500000 -28.500000
  endloop
endfacet
facet normal 0.000000 0.000000 -1.000000
  outer loop
    vertex -1.500000 15.500000 -28.500000
    vertex -0.500000 15.500000 -28.500000
    vertex -1.500000 14.500000 -28.500000
  endloop
endfacet
facet normal 0.000000 0.000000 -1.000000
  outer loop
    vertex -1.500000 14.500000 -28.500000
    vertex -2.500000 14.500000 -28.500000
    vertex -1.500000 15.500000 -28.500000
  endloop
endfacet
facet normal 0.000000 0.000000 -1.000000
  outer loop
    vertex -2.500000 15.500000 -28.500000
    vertex -1.500000 15.500000 -28.500000
    vertex -2.500000 14.500000 -28.500000
  endloop
endfacet
facet normal 0.000000 -0.000000 1.000000
  outer loop
    vertex 5.500000 15.500000 -24.500000
    vertex 5.500000 16.500000 -24.500000
    vertex 4.500000 16.500000 -24.500000
  endloop
endfacet
facet normal 0.000000 0.000000 1.000000
  outer loop
    vertex 5.500000 15.500000 -24.500000
    vertex 4.500000 16.500000 -24.500000
    vertex 4.500000 15.500000 -24.500000
  endloop
endfacet
facet normal 1.000000 0.000000 0.000000
  outer loop
    vertex 5.500000 15.500000 -24.500000
    vertex 5.500000 15.500000 -25.500000
    vertex 5.500000 16.500000 -25.500000
  endloop
endfacet
facet normal 1.000000 -0.000000 0.000000
  outer loop
    vertex 5.500000 15.500000 -24.500000
    vertex 5.500000 16.500000 -25.500000
    vertex 5.500000 16.500000 -24.500000
  endloop
endfacet
facet normal 0.000000 1.000000 0.000000
  outer loop
    vertex 4.500000 15.500000 -24.500000
    vertex 4.500000 15.500000 -25.500000
    vertex 3.500000 15.500000 -24.500000
  endloop
endfacet
facet normal 0.000000 1.000000 0.000000
  outer loop
    vertex 3.500000 15.500000 -25.500000
    vertex 3.500000 15.500000 -24.500000
    vertex 4.500000 15.500000 -25.500000
  endloop
endfacet
facet normal -1.000000 0.000000 0.000000
  outer loop
    vertex 4.500000 15.500000 -24.500000
    vertex 4.500000 16.500000 -24.500000
    vertex 4.500000 16.500000 -25.500000
  endloop
endfacet
facet normal -1.000000 0.000000 0.000000
  outer loop
    vertex 4.500000 15.500000 -24.500000
    vertex 4.500000 16.500000 -25.500000
    vertex 4.500000 15.500000 -25.500000
  endloop
endfacet
facet normal 0.000000 -0.000000 1.000000
  outer loop
    vertex 3.500000 15.500000 -24.500000
    vertex 3.500000 16.500000 -24.500000
    vertex 2.500000 16.500000 -24.500000
  endloop
endfacet
facet normal 0.000000 0.000000 1.000000
  outer loop
    vertex 3.500000 15.500000 -24.500000
    vertex 2.500000 16.500000 -24.500000
    vertex 2.500000 15.500000 -24.500000
  endloop
endfacet
facet normal 1.000000 -0.000000 0.000000
  outer loop
    vertex 3.500000 15.500000 -24.500000
    vertex 3.500000 15.500000 -25.500000
    vertex 3.500000 16.500000 -24.500000
  endloop
endfacet
facet normal 1.000000 0.000000 -0.000000
  outer loop
    vertex 3.500000 16.500000 -25.500000
    vertex 3.500000 16.500000 -24.500000
    vertex 3.500000 15.500000 -25.500000
  endloop
endfacet
facet normal 0.000000 -0.000000 1.000000
  outer loop
    vertex 2.500000 15.500000 -24.500000
    vertex 2.500000 16.500000 -24.500000
    vertex 1.500000 16.500000 -24.500000
  endloop
endfacet
facet normal 0.000000 0.000000 1.000000
  outer loop
    vertex 2.500000 15.500000 -24.500000
    vertex 1.500000 16.500000 -24.500000
    vertex 1.500000 15.500000 -24.500000
  endloop
endfacet
facet normal 0.000000 -0.000000 1.000000
  outer loop
    vertex 1.500000 15.500000 -24.500000
    vertex 1.500000 16.500000 -24.500000
    vertex 0.500000 16.500000 -24.500000
  endloop
endfacet
facet normal 0.000000 0.000000 1.000000
  outer loop
    vertex 1.500000 15.500000 -24.500000
    vertex 0.500000 16.500000 -24.500000
    vertex 0.500000 15.500000 -24.500000
  endloop
endfacet
facet normal 0.000000 -0.000000 1.000000
  outer loop
    vertex 0.500000 15.500000 -24.500000
    vertex 0.500000 16.500000 -24.500000
    vertex -0.500000 16.500000 -24.500000
  endloop
endfacet
facet normal 0.000000 0.000000 1.000000
  outer loop
    vertex 0.500000 15.500000 -24.500000
    vertex -0.500000 16.500000 -24.500000
    vertex -0.500000 15.500000 -24.500000
  endloop
endfacet
facet normal 0.000000 -0.000000 1.000000
  outer loop
    vertex -0.500000 15.500000 -24.500000
    vertex -0.500000 16.500000 -24.500000
    vertex -1.500000 15.500000 -24.500000
  endloop
endfacet
facet normal -0.000000 0.000000 1.000000
  outer loop
    vertex -1.500000 16.500000 -24.500000
    vertex -1.500000 15.500000 -24.500000
    vertex -0.500000 16.500000 -24.500000
  endloop
endfacet
facet normal 0.000000 -0.000000 1.000000
  outer loop
    vertex -1.500000 15.500000 -24.500000
    vertex -1.500000 16.500000 -24.500000
    vertex -2.500000 15.500000 -24.500000
  endloop
endfacet
facet normal -0.000000 0.000000 1.000000
  outer loop
    vertex -2.500000 16.500000 -24.500000
    vertex -2.500000 15.500000 -24.500000
    vertex -1.500000 16.500000 -24.500000
  endloop
endfacet
facet normal 0.000000 1.000000 0.000000
  outer loop
    vertex -2.500000 15.500000 -24.500000
    vertex -2.500000 15.500000 -25.500000
    vertex -3.500000 15.500000 -24.500000
  endloop
endfacet
facet normal 0.000000 1.000000 0.000000
  outer loop
    vertex -3.500000 15.500000 -25.500000
    vertex -3.500000 15.500000 -24.500000
    vertex -2.500000 15.500000 -25.500000
  endloop
endfacet
facet normal -1.000000 0.000000 0.000000
  outer loop
    vertex -2.500000 15.500000 -24.500000
    vertex -2.500000 16.500000 -24.500000
    vertex -2.500000 15.500000 -25.500000
  endloop
endfacet
facet normal -1.000000 0.000000 0.000000
  outer loop
    vertex -2.500000 16.500000 -25.500000
    vertex -2.500000 15.500000 -25.500000
    vertex -2.500000 16.500000 -24.500000
  endloop
endfacet
facet normal 0.000000 1.000000 0.000000
  outer loop
    vertex -3.500000 15.500000 -24.500000
    vertex -3.500000 15.500000 -25.500000
    vertex -4.500000 15.500000 -24.500000
  endloop
endfacet
facet normal 0.000000 1.000000 0.000000
  outer loop
    vertex -4.500000 15.500000 -25.500000
    vertex -4.500000 15.500000 -24.500000
    vertex -3.500000 15.500000 -25.500000
  endloop
endfacet
facet normal 1.000000 -0.000000 0.000000
  outer loop
    vertex 5.500000 15.500000 -25.500000
    vertex 5.500000 15.500000 -26.500000
    vertex 5.500000 16.500000 -25.500000
  endloop
endfacet
facet normal 1.000000 0.000000 -0.000000
  outer loop
    vertex 5.500000 16.500000 -26.500000
    vertex 5.500000 16.500000 -25.500000
    vertex 5.500000 15.500000 -26.500000
  endloop
endfacet
facet normal 0.000000 -0.000000 1.000000
  outer loop
    vertex 4.500000 15.500000 -25.500000
    vertex 4.500000 16.500000 -25.500000
    vertex 3.500000 15.500000 -25.500000
  endloop
endfacet
facet normal -0.000000 0.000000 1.000000
  outer loop
    vertex 3.500000 16.500000 -25.500000
    vertex 3.500000 15.500000 -25.500000
    vertex 4.500000 16.500000 -25.500000
  endloop
endfacet
facet normal 0.000000 1.000000 0.000000
  outer loop
    vertex -2.500000 15.500000 -25.500000
    vertex -2.500000 15.500000 -26.500000
    vertex -3.500000 15.500000 -26.500000
  endloop
endfacet
facet normal 0.000000 1.000000 0.000000
  outer loop
    vertex -2.500000 15.500000 -25.500000
    vertex -3.500000 15.500000 -26.500000
    vertex -3.500000 15.500000 -25.500000
  endloop
endfacet
facet normal -1.000000 0.000000 0.000000
  outer loop
    vertex -2.500000 15.500000 -25.500000
    vertex -2.500000 16.500000 -25.500000
    vertex -2.500000 16.500000 -26.500000
  endloop
endfacet
facet normal -1.000000 0.000000 0.000000
  outer loop
    vertex -2.500000 15.500000 -25.500000
    vertex -2.500000 16.500000 -26.500000
    vertex -2.500000 15.500000 -26.500000
  endloop
endfacet
facet normal 0.000000 1.000000 0.000000
  outer loop
    vertex -3.500000 15.500000 -25.500000
    vertex -3.500000 15.500000 -26.500000
    vertex -4.500000 15.500000 -26.500000
  endloop
endfacet
facet normal 0.000000 1.000000 0.000000
  outer loop
    vertex -3.500000 15.500000 -25.500000
    vertex -4.500000 15.500000 -26.500000
    vertex -4.500000 15.500000 -25.500000
  endloop
endfacet
facet normal 0.000000 0.000000 -1.000000
  outer loop
    vertex 5.500000 15.500000 -26.500000
    vertex 4.500000 15.500000 -26.500000
    vertex 4.500000 16.500000 -26.500000
  endloop
endfacet
facet normal 0.000000 0.000000 -1.000000
  outer loop
    vertex 5.500000 15.500000 -26.500000
    vertex 4.500000 16.500000 -26.500000
    vertex 5.500000 16.500000 -26.500000
  endloop
endfacet
facet normal 0.000000 0.000000 -1.000000
  outer loop
    vertex 4.500000 15.500000 -26.500000
    vertex 3.500000 15.500000 -26.500000
    vertex 3.500000 16.500000 -26.500000
  endloop
endfacet
facet normal 0.000000 0.000000 -1.000000
  outer loop
    vertex 4.500000 15.500000 -26.500000
    vertex 3.500000 16.500000 -26.500000
    vertex 4.500000 16.500000 -26.500000
  endloop
endfacet
facet normal 0.000000 0.000000 -1.000000
  outer loop
    vertex 3.500000 15.500000 -26.500000
    vertex 2.500000 15.500000 -26.500000
    vertex 2.500000 16.500000 -26.500000
  endloop
endfacet
facet normal 0.000000 0.000000 -1.000000
  outer loop
    vertex 3.500000 15.500000 -26.500000
    vertex 2.500000 16.500000 -26.500000
    vertex 3.500000 16.500000 -26.500000
  endloop
endfacet
facet normal 0.000000 0.000000 -1.000000
  outer loop
    vertex 2.500000 15.500000 -26.500000
    vertex 1.500000 15.500000 -26.500000
    vertex 1.500000 16.500000 -26.500000
  endloop
endfacet
facet normal 0.000000 0.000000 -1.000000
  outer loop
    vertex 2.500000 15.500000 -26.500000
    vertex 1.500000 16.500000 -26.500000
    vertex 2.500000 16.500000 -26.500000
  endloop
endfacet
facet normal 0.000000 0.000000 -1.000000
  outer loop
    vertex 1.500000 15.500000 -26.500000
    vertex 0.500000 15.500000 -26.500000
    vertex 0.500000 16.500000 -26.500000
  endloop
endfacet
facet normal 0.000000 0.000000 -1.000000
  outer loop
    vertex 1.500000 15.500000 -26.500000
    vertex 0.500000 16.500000 -26.500000
    vertex 1.500000 16.500000 -26.500000
  endloop
endfacet
facet normal 1.000000 -0.000000 0.000000
  outer loop
    vertex 0.500000 15.500000 -26.500000
    vertex 0.500000 15.500000 -27.500000
    vertex 0.500000 16.500000 -26.500000
  endloop
endfacet
facet normal 1.000000 0.000000 -0.000000
  outer loop
    vertex 0.500000 16.500000 -27.500000
    vertex 0.500000 16.500000 -26.500000
    vertex 0.500000 15.500000 -27.500000
  endloop
endfacet
facet normal 0.000000 -0.000000 1.000000
  outer loop
    vertex -2.500000 15.500000 -26.500000
    vertex -2.500000 16.500000 -26.500000
    vertex -3.500000 15.500000 -26.500000
  endloop
endfacet
facet normal -0.000000 0.000000 1.000000
  outer loop
    vertex -3.500000 16.500000 -26.500000
    vertex -3.500000 15.500000 -26.500000
    vertex -2.500000 16.500000 -26.500000
  endloop
endfacet
facet normal -1.000000 0.000000 0.000000
  outer loop
    vertex -3.500000 15.500000 -26.500000
    vertex -3.500000 16.500000 -26.500000
    vertex -3.500000 15.500000 -27.500000
  endloop
endfacet
facet normal -1.000000 0.000000 0.000000
  outer loop
    vertex -3.500000 16.500000 -27.500000
    vertex -3.500000 15.500000 -27.500000
    vertex -3.500000 16.500000 -26.500000
  endloop
endfacet
facet normal 1.000000 -0.000000 0.000000
  outer loop
    vertex 0.500000 15.500000 -27.500000
    vertex 0.500000 15.500000 -28.500000
    vertex 0.500000 16.500000 -27.500000
  endloop
endfacet
facet normal 1.000000 0.000000 -0.000000
  outer loop
    vertex 0.500000 16.500000 -28.500000
    vertex 0.500000 16.500000 -27.500000
    vertex 0.500000 15.500000 -28.500000
  endloop
endfacet
facet normal 0.000000 0.000000 -1.000000
  outer loop
    vertex -2.500000 15.500000 -27.500000
    vertex -3.500000 15.500000 -27.500000
    vertex -2.500000 16.500000 -27.500000
  endloop
endfacet
facet normal 0.000000 0.000000 -1.000000
  outer loop
    vertex -3.500000 16.500000 -27.500000
    vertex -2.500000 16.500000 -27.500000
    vertex -3.500000 15.500000 -27.500000
  endloop
endfacet
facet normal -1.000000 0.000000 0.000000
  outer loop
    vertex -2.500000 15.500000 -27.500000
    vertex -2.500000 16.500000 -27.500000
    vertex -2.500000 15.500000 -28.500000
  endloop
endfacet
facet normal -1.000000 0.000000 0.000000
  outer loop
    vertex -2.500000 16.500000 -28.500000
    vertex -2.500000 15.500000 -28.500000
    vertex -2.500000 16.500000 -27.500000
  endloop
endfacet
facet normal 0.000000 0.000000 -1.000000
  outer loop
    vertex 0.500000 15.500000 -28.500000
    vertex -0.500000 15.500000 -28.500000
    vertex 0.500000 16.500000 -28.500000
  endloop
endfacet
facet normal 0.000000 0.000000 -1.000000
  outer loop
    vertex -0.500000 16.500000 -28.500000
    vertex 0.500000 16.500000 -28.500000
    vertex -0.500000 15.500000 -28.500000
  endloop
endfacet
facet normal 0.000000 0.000000 -1.000000
  outer loop
    vertex -0.500000 15.500000 -28.500000
    vertex -1.500000 15.500000 -28.500000
    vertex -0.500000 16.500000 -28.500000
  endloop
endfacet
facet normal 0.000000 0.000000 -1.000000
  outer loop
    vertex -1.500000 16.500000 -28.500000
    vertex -0.500000 16.500000 -28.500000
    vertex -1.500000 15.500000 -28.500000
  endloop
endfacet
facet normal 0.000000 0.000000 -1.000000
  outer loop
    vertex -1.500000 15.500000 -28.500000
    vertex -2.500000 15.500000 -28.500000
    vertex -1.500000 16.500000 -28.500000
  endloop
endfacet
facet normal 0.000000 0.000000 -1.000000
  outer loop
    vertex -2.500000 16.500000 -28.500000
    vertex -1.500000 16.500000 -28.500000
    vertex -2.500000 15.500000 -28.500000
  endloop
endfacet
facet normal 0.000000 1.000000 0.000000
  outer loop
    vertex 5.500000 16.500000 -24.500000
    vertex 5.500000 16.500000 -25.500000
    vertex 4.500000 16.500000 -25.500000
  endloop
endfacet
facet normal 0.000000 1.000000 0.000000
  outer loop
    vertex 5.500000 16.500000 -24.500000
    vertex 4.500000 16.500000 -25.500000
    vertex 4.500000 16.500000 -24.500000
  endloop
endfacet
facet normal 0.000000 1.000000 0.000000
  outer loop
    vertex 3.500000 16.500000 -24.500000
    vertex 3.500000 16.500000 -25.500000
    vertex 2.500000 16.500000 -25.500000
  endloop
endfacet
facet normal 0.000000 1.000000 0.000000
  outer loop
    vertex 3.500000 16.500000 -24.500000
    vertex 2.500000 16.500000 -25.500000
    vertex 2.500000 16.500000 -24.500000
  endloop
endfacet
facet normal 0.000000 1.000000 0.000000
  outer loop
    vertex 2.500000 16.500000 -24.500000
    vertex 2.500000 16.500000 -25.500000
    vertex 1.500000 16.500000 -25.500000
  endloop
endfacet
facet normal 0.000000 1.000000 0.000000
  outer loop
    vertex 2.500000 16.500000 -24.500000
    vertex 1.500000 16.500000 -25.500000
    vertex 1.500000 16.500000 -24.500000
  endloop
endfacet
facet normal 0.000000 1.000000 0.000000
  outer loop
    vertex 1.500000 16.500000 -24.500000
    vertex 1.500000 16.500000 -25.500000
    vertex 0.500000 16.500000 -24.500000
  endloop
endfacet
facet normal 0.000000 1.000000 0.000000
  outer loop
    vertex 0.500000 16.500000 -25.500000
    vertex 0.500000 16.500000 -24.500000
    vertex 1.500000 16.500000 -25.500000
  endloop
endfacet
facet normal 0.000000 1.000000 0.000000
  outer loop
    vertex 0.500000 16.500000 -24.500000
    vertex 0.500000 16.500000 -25.500000
    vertex -0.500000 16.500000 -24.500000
  endloop
endfacet
facet normal 0.000000 1.000000 0.000000
  outer loop
    vertex -0.500000 16.500000 -25.500000
    vertex -0.500000 16.500000 -24.500000
    vertex 0.500000 16.500000 -25.500000
  endloop
endfacet
facet normal 0.000000 1.000000 0.000000
  outer loop
    vertex -0.500000 16.500000 -24.500000
    vertex -0.500000 16.500000 -25.500000
    vertex -1.500000 16.500000 -24.500000
  endloop
endfacet
facet normal 0.000000 1.000000 0.000000
  outer loop
    vertex -1.500000 16.500000 -25.500000
    vertex -1.500000 16.500000 -24.500000
    vertex -0.500000 16.500000 -25.500000
  endloop
endfacet
facet normal 0.000000 1.000000 0.000000
  outer loop
    vertex -1.500000 16.500000 -24.500000
    vertex -1.500000 16.500000 -25.500000
    vertex -2.500000 16.500000 -24.500000
  endloop
endfacet
facet normal 0.000000 1.000000 0.000000
  outer loop
    vertex -2.500000 16.500000 -25.500000
    vertex -2.500000 16.500000 -24.500000
    vertex -1.500000 16.500000 -25.500000
  endloop
endfacet
facet normal 0.000000 1.000000 0.000000
  outer loop
    vertex 5.500000 16.500000 -25.500000
    vertex 5.500000 16.500000 -26.500000
    vertex 4.500000 16.500000 -25.500000
  endloop
endfacet
facet normal 0.000000 1.000000 0.000000
  outer loop
    vertex 4.500000 16.500000 -26.500000
    vertex 4.500000 16.500000 -25.500000
    vertex 5.500000 16.500000 -26.500000
  endloop
endfacet
facet normal 0.000000 1.000000 0.000000
  outer loop
    vertex 4.500000 16.500000 -25.500000
    vertex 4.500000 16.500000 -26.500000
    vertex 3.500000 16.500000 -25.500000
  endloop
endfacet
facet normal 0.000000 1.000000 0.000000
  outer loop
    vertex 3.500000 16.500000 -26.500000
    vertex 3.500000 16.500000 -25.500000
    vertex 4.500000 16.500000 -26.500000
  endloop
endfacet
facet normal 0.000000 1.000000 0.000000
  outer loop
    vertex 3.500000 16.500000 -25.500000
    vertex 3.500000 16.500000 -26.500000
    vertex 2.500000 16.500000 -25.500000
  endloop
endfacet
facet normal 0.000000 1.000000 0.000000
  outer loop
    vertex 2.500000 16.500000 -26.500000
    vertex 2.500000 16.500000 -25.500000
    vertex 3.500000 16.500000 -26.500000
  endloop
endfacet
facet normal 0.000000 1.000000 0.000000
  outer loop
    vertex 2.500000 16.500000 -25.500000
    vertex 2.500000 16.500000 -26.500000
    vertex 1.500000 16.500000 -25.500000
  endloop
endfacet
facet normal 0.000000 1.000000 0.000000
  outer loop
    vertex 1.500000 16.500000 -26.500000
    vertex 1.500000 16.500000 -25.500000
    vertex 2.500000 16.500000 -26.500000
  endloop
endfacet
facet normal 0.000000 1.000000 0.000000
  outer loop
    vertex 1.500000 16.500000 -25.500000
    vertex 1.500000 16.500000 -26.500000
    vertex 0.500000 16.500000 -26.500000
  endloop
endfacet
facet normal 0.000000 1.000000 0.000000
  outer loop
    vertex 1.500000 16.500000 -25.500000
    vertex 0.500000 16.500000 -26.500000
    vertex 0.500000 16.500000 -25.500000
  endloop
endfacet
facet normal 0.000000 1.000000 0.000000
  outer loop
    vertex 0.500000 16.500000 -25.500000
    vertex 0.500000 16.500000 -26.500000
    vertex -0.500000 16.500000 -26.500000
  endloop
endfacet
facet normal 0.000000 1.000000 0.000000
  outer loop
    vertex 0.500000 16.500000 -25.500000
    vertex -0.500000 16.500000 -26.500000
    vertex -0.500000 16.500000 -25.500000
  endloop
endfacet
facet normal 0.000000 1.000000 0.000000
  outer loop
    vertex -0.500000 16.500000 -25.500000
    vertex -0.500000 16.500000 -26.500000
    vertex -1.500000 16.500000 -26.500000
  endloop
endfacet
facet normal 0.000000 1.000000 0.000000
  outer loop
    vertex -0.500000 16.500000 -25.500000
    vertex -1.500000 16.500000 -26.500000
    vertex -1.500000 16.500000 -25.500000
  endloop
endfacet
facet normal 0.000000 1.000000 0.000000
  outer loop
    vertex -1.500000 16.500000 -25.500000
    vertex -1.500000 16.500000 -26.500000
    vertex -2.500000 16.500000 -26.500000
  endloop
endfacet
facet normal 0.000000 1.000000 0.000000
  outer loop
    vertex -1.500000 16.500000 -25.500000
    vertex -2.500000 16.500000 -26.500000
    vertex -2.500000 16.500000 -25.500000
  endloop
endfacet
facet normal 0.000000 1.000000 0.000000
  outer loop
    vertex 0.500000 16.500000 -26.500000
    vertex 0.500000 16.500000 -27.500000
    vertex -0.500000 16.500000 -27.500000
  endloop
endfacet
facet normal 0.000000 1.000000 0.000000
  outer loop
    vertex 0.500000 16.500000 -26.500000
    vertex -0.500000 16.500000 -27.500000
    vertex -0.500000 16.500000 -26.500000
  endloop
endfacet
facet normal 0.000000 1.000000 0.000000
  outer loop
    vertex -0.500000 16.500000 -26.500000
    vertex -0.500000 16.500000 -27.500000
    vertex -1.500000 16.500000 -27.500000
  endloop
endfacet
facet normal 0.000000 1.000000 0.000000
  outer loop
    vertex -0.500000 16.500000 -26.500000
    vertex -1.500000 16.500000 -27.500000
    vertex -1.500000 16.500000 -26.500000
  endloop
endfacet
facet normal 0.000000 1.000000 0.000000
  outer loop
    vertex -1.500000 16.500000 -26.500000
    vertex -1.500000 16.500000 -27.500000
    vertex -2.500000 16.500000 -26.500000
  endloop
endfacet
facet normal 0.000000 1.000000 0.000000
  outer loop
    vertex -2.500000 16.500000 -27.500000
    vertex -2.500000 16.500000 -26.500000
    vertex -1.500000 16.500000 -27.500000
  endloop
endfacet
facet normal 0.000000 1.000000 0.000000
  outer loop
    vertex -2.500000 16.500000 -26.500000
    vertex -2.500000 16.500000 -27.500000
    vertex -3.500000 16.500000 -26.500000
  endloop
endfacet
facet normal 0.000000 1.000000 0.000000
  outer loop
    vertex -3.500000 16.500000 -27.500000
    vertex -3.500000 16.500000 -26.500000
    vertex -2.500000 16.500000 -27.500000
  endloop
endfacet
facet normal 0.000000 1.000000 0.000000
  outer loop
    vertex 0.500000 16.500000 -27.500000
    vertex 0.500000 16.500000 -28.500000
    vertex -0.500000 16.500000 -27.500000
  endloop
endfacet
facet normal 0.000000 1.000000 0.000000
  outer loop
    vertex -0.500000 16.500000 -28.500000
    vertex -0.500000 16.500000 -27.500000
    vertex 0.500000 16.500000 -28.500000
  endloop
endfacet
facet normal 0.000000 1.000000 0.000000
  outer loop
    vertex -0.500000 16.500000 -27.500000
    vertex -0.500000 16.500000 -28.500000
    vertex -1.500000 16.500000 -27.500000
  endloop
endfacet
facet normal 0.000000 1.000000 0.000000
  outer loop
    vertex -1.500000 16.500000 -28.500000
    vertex -1.500000 16.500000 -27.500000
    vertex -0.500000 16.500000 -28.500000
  endloop
endfacet
facet normal 0.000000 1.000000 0.000000
  outer loop
    vertex -1.500000 16.500000 -27.500000
    vertex -1.500000 16.500000 -28.500000
    vertex -2.500000 16.500000 -27.500000
  endloop
endfacet
facet normal 0.000000 1.000000 0.000000
  outer loop
    vertex -2.500000 16.500000 -28.500000
    vertex -2.500000 16.500000 -27.500000
    vertex -1.500000 16.500000 -28.500000
  endloop
endfacet
endsolid subcortical/optic_chiasm.stl
